<svg width="90" height="72" xmlns="http://www.w3.org/2000/svg" xmlns:xlink="http://www.w3.org/1999/xlink"><svg version="1" viewBox="-1.5 -1.5 27 27" width="18" height="18" x="18" xmlns="http://www.w3.org/2000/svg"><circle cx="12" cy="8" r="4"/><path d="M12 14c-6.1 0-8 4-8 4v2h16v-2s-1.9-4-8-4z"/></svg><svg height="18" width="18" viewBox="-2 -2 36 36" x="54" xmlns="http://www.w3.org/2000/svg"><path d="M27.719 20.296l3.607-10.718c.181-.519.044-.792-.103-.998-.374-.527-1.142-.512-1.292-.512l-20.385.006-.544-2.733C8.855 4.732 8.421 4 7.546 4H1.817C1.224 4 1 4.59 1 5.146v1.49c0 .536.222.364.838.364h4.837l3.702 15.873c-.588.623-.908 1.609-.908 2.457 0 1.864 1.484 3.465 3.379 3.465 1.791 0 3.132-1.795 3.35-2.795h7.21c.218 1 1.305 2.873 3.349 2.873 1.862 0 3.378-1.535 3.378-3.396 0-1.852-1.125-3.609-3.359-3.609-.928 0-2.031.133-2.543 1.133h-8.859c-.643-1-1.521-1.311-2.409-1.345L12.843 21h13.479c1.016 0 1.216-.214 1.397-.704zm-16.182 5.218c0-.709.577-1.286 1.286-1.286a1.286 1.286 0 0 1 0 2.571c-.71 0-1.286-.576-1.286-1.285zm15.246 1.269a1.271 1.271 0 1 1 1.27-1.27c0 .7-.569 1.27-1.27 1.27z" fill="#515151"/></svg><svg height="18" width="18" viewBox="-3.54 -3.54 63.78 63.78" y="18" xmlns="http://www.w3.org/2000/svg"><path d="M40.43 21.739h-7.645v-5.014c0-1.883 1.248-2.322 2.127-2.322h5.395V6.125l-7.43-.029c-8.248 0-10.125 6.174-10.125 10.125v5.518h-4.77v8.53h4.77v24.137h10.033V30.269h6.77l.875-8.53z"/></svg><svg height="18" width="18" viewBox="-4.19 -4.19 75.38 75.38" x="18" y="18" xmlns="http://www.w3.org/2000/svg"><path d="M28.765 50.32h6.744V33.998h4.499l.596-5.624h-5.095l.007-2.816c0-1.466.14-2.253 2.244-2.253h2.812V17.68h-4.5c-5.405 0-7.307 2.729-7.307 7.317v3.377h-3.369v5.625h3.369V50.32zM33 64C16.432 64 3 50.568 3 34 3 17.431 16.432 4 33 4s30 13.431 30 30c0 16.568-13.432 30-30 30z" fill-rule="evenodd" clip-rule="evenodd" fill="#010101"/></svg><svg height="18" width="18" viewBox="-3.54 -3.54 63.78 63.78" x="36" xmlns="http://www.w3.org/2000/svg"><path d="M19.667 25.787c-.007 1.793 0 3.587.008 5.38 3.006.098 6.02.053 9.027.098-1.326 6.669-10.399 8.832-15.199 4.476-4.936-3.82-4.702-12.2.43-15.749 3.587-2.864 8.688-2.155 12.275.324 1.41-1.304 2.728-2.698 4.001-4.144-2.984-2.382-6.646-4.077-10.542-3.896-8.13-.272-15.606 6.85-15.741 14.98-.52 6.646 3.85 13.165 10.022 15.516 6.149 2.366 14.03.753 17.957-4.77 2.592-3.49 3.15-7.98 2.848-12.2-5.034-.038-10.06-.03-15.086-.015zm29.403-.023c-.015-1.5-.022-3.007-.03-4.506h-4.483c-.015 1.5-.03 2.999-.038 4.506-1.507.008-3.007.015-4.506.03v4.484l4.506.045c.015 1.5.015 3 .03 4.499h4.491c.008-1.5.015-3 .03-4.506 1.507-.015 3.007-.023 4.507-.038v-4.484c-1.5-.015-3.007-.015-4.507-.03z"/></svg><svg width="18" height="18" viewBox="-7.01 -7.01 126.22 126.22" x="36" y="18" xmlns="http://www.w3.org/2000/svg"><path fill="none" d="M-1-1h582v402H-1z"/><circle r="56.098" cy="56.097" cx="56.098"/><path fill="#DC4E41" d="M19.531 58.608c-.199 9.652 6.449 18.863 15.594 21.867 8.614 2.894 19.205.729 24.937-6.648 4.185-5.169 5.136-12.06 4.683-18.498-7.377-.066-14.754-.044-22.12-.033-.012 2.628 0 5.246.011 7.874 4.417.122 8.835.066 13.252.155-1.115 3.821-3.655 7.377-7.51 8.757-7.443 3.28-16.94-1.005-19.282-8.813-2.827-7.477 1.801-16.5 9.442-18.675 4.738-1.667 9.619.21 13.673 2.673 2.054-1.922 3.976-3.976 5.864-6.052-4.606-3.854-10.525-6.217-16.61-5.698-11.939.142-22.387 11.164-21.934 23.091zm59.571-9.94c-.022 2.198-.045 4.407-.056 6.604-2.209.022-4.406.033-6.604.044v6.582c2.198.011 4.407.022 6.604.045.022 2.198.022 4.395.044 6.604 2.187 0 4.385-.011 6.582 0 .012-2.209.022-4.406.045-6.615l6.604-.033v-6.582c-2.197-.011-4.406-.022-6.604-.044-.012-2.198-.033-4.407-.045-6.604l-6.57-.001z"/><path fill="#FFF" d="M19.531 58.608c-.453-11.927 9.994-22.949 21.933-23.092 6.085-.519 12.005 1.844 16.61 5.698-1.889 2.077-3.811 4.13-5.864 6.052-4.054-2.463-8.935-4.34-13.673-2.673-7.642 2.176-12.27 11.199-9.442 18.675 2.342 7.808 11.839 12.093 19.282 8.813 3.854-1.38 6.395-4.936 7.51-8.757-4.417-.088-8.835-.033-13.252-.155-.011-2.628-.022-5.246-.011-7.874 7.366-.011 14.743-.033 22.12.033.453 6.439-.497 13.33-4.683 18.498-5.732 7.377-16.322 9.542-24.937 6.648-9.143-3.003-15.792-12.214-15.593-21.866zm59.571-9.94h6.57c.012 2.198.033 4.407.045 6.604 2.197.022 4.406.033 6.604.044v6.582l-6.604.033c-.022 2.209-.033 4.406-.045 6.615-2.197-.011-4.396 0-6.582 0-.021-2.209-.021-4.406-.044-6.604-2.197-.023-4.406-.033-6.604-.045v-6.582c2.198-.011 4.396-.022 6.604-.044.011-2.196.033-4.405.056-6.603z"/></svg><svg height="18" viewBox="-9.57 -20.41 159.45 159.45" width="18" y="36" xmlns="http://www.w3.org/2000/svg"><path d="M140.314 37.654C140.314 16.858 123.402 0 102.537 0c-13.744 0-25.77 7.317-32.379 18.255C63.549 7.317 51.521 0 37.777 0 16.912 0 0 16.858 0 37.654c0 10.821 4.588 20.57 11.922 27.438h-.01l54.084 51.584a5.389 5.389 0 0 0 8.068.249l54.346-51.833h-.016c7.335-6.867 11.92-16.616 11.92-27.438"/></svg><svg height="18" width="18" viewBox="-3.54 -3.54 63.78 63.78" x="18" y="36" xmlns="http://www.w3.org/2000/svg"><path d="M43.414 4.831H13c-5.283 0-9.581 4.297-9.581 9.58v30.415c0 5.283 4.298 9.58 9.581 9.58h30.415c5.283 0 9.58-4.297 9.58-9.58V14.41c-.001-5.283-4.298-9.579-9.581-9.579zm2.748 5.713l1.096-.004v8.403l-8.375.027-.029-8.402 7.308-.024zM21.131 24.53c1.588-2.197 4.164-3.638 7.076-3.638s5.488 1.441 7.074 3.638a8.677 8.677 0 0 1 1.652 5.088c0 4.811-3.918 8.725-8.727 8.725-4.812 0-8.726-3.914-8.726-8.725a8.683 8.683 0 0 1 1.651-5.088zm27.033 20.295a4.754 4.754 0 0 1-4.75 4.75H13a4.755 4.755 0 0 1-4.751-4.75V24.53h7.4a13.483 13.483 0 0 0-.998 5.088c0 7.473 6.08 13.557 13.556 13.557 7.475 0 13.555-6.084 13.555-13.557 0-1.799-.361-3.516-1-5.088h7.402v20.295z"/></svg><svg viewBox="-3.54 -3.54 63.79 63.79" width="18" height="18" x="36" y="36" xmlns="http://www.w3.org/2000/svg"><path d="M28.2 16.7c-7 0-12.8 5.7-12.8 12.8s5.7 12.8 12.8 12.8S41 36.5 41 29.5s-5.8-12.8-12.8-12.8zm0 21c-4.5 0-8.2-3.7-8.2-8.2s3.7-8.2 8.2-8.2 8.2 3.7 8.2 8.2-3.7 8.2-8.2 8.2z"/><circle cx="41.5" cy="16.4" r="2.9"/><path d="M49 8.9c-2.6-2.7-6.3-4.1-10.5-4.1H17.9c-8.7 0-14.5 5.8-14.5 14.5v20.5c0 4.3 1.4 8 4.2 10.7 2.7 2.6 6.3 3.9 10.4 3.9h20.4c4.3 0 7.9-1.4 10.5-3.9 2.7-2.6 4.1-6.3 4.1-10.6V19.3c0-4.2-1.4-7.8-4-10.4zm-.4 31c0 3.1-1.1 5.6-2.9 7.3s-4.3 2.6-7.3 2.6H18c-3 0-5.5-.9-7.3-2.6C8.9 45.4 8 42.9 8 39.8V19.3c0-3 .9-5.5 2.7-7.3 1.7-1.7 4.3-2.6 7.3-2.6h20.6c3 0 5.5.9 7.3 2.7 1.7 1.8 2.7 4.3 2.7 7.2v20.6z"/></svg><svg height="18" width="18" viewBox="-3.54 -3.54 63.78 63.78" xmlns="http://www.w3.org/2000/svg"><path d="M38.512 24.392v-4.537l-.59.002-3.947.014.015 4.536zM28.225 34.868a4.718 4.718 0 0 0 4.713-4.711 4.679 4.679 0 0 0-.893-2.748c-.855-1.186-2.248-1.965-3.82-1.965s-2.963.779-3.82 1.965a4.677 4.677 0 0 0-.891 2.748 4.716 4.716 0 0 0 4.711 4.711z"/><path d="M28.348 5.158c-13.6 0-24.625 11.023-24.625 24.623 0 13.6 11.025 24.625 24.625 24.625 13.598 0 24.623-11.025 24.623-24.625S41.945 5.158 28.348 5.158zm13.263 22.251V38.37a5.18 5.18 0 0 1-5.174 5.172H20.012a5.178 5.178 0 0 1-5.173-5.172V21.945a5.178 5.178 0 0 1 5.173-5.173h16.425a5.18 5.18 0 0 1 5.174 5.173v5.464z"/><path d="M35.545 30.157c0 4.035-3.283 7.32-7.32 7.32s-7.318-3.285-7.318-7.32c0-.973.193-1.898.537-2.748h-3.996V38.37a2.567 2.567 0 0 0 2.564 2.564h16.425a2.567 2.567 0 0 0 2.564-2.564V27.409h-3.998a7.25 7.25 0 0 1 .542 2.748z"/></svg><svg height="18" width="18" viewBox="-3.54 -3.54 63.79 63.79" x="54" y="18" xmlns="http://www.w3.org/2000/svg"><circle cx="28.1" cy="30" r="4.4"/><path d="M33.6 19.2h-11c-1.6 0-3 .5-3.9 1.4-.9.9-1.4 2.3-1.4 3.9v11c0 1.6.5 3 1.5 4 1 .9 2.3 1.4 3.9 1.4h10.9c1.6 0 3-.5 3.9-1.4 1-.9 1.5-2.3 1.5-3.9v-11c0-1.6-.5-2.9-1.4-3.9-1-1-2.3-1.5-4-1.5zm-5.5 17.6c-3.8 0-6.8-3.1-6.8-6.8 0-3.8 3.1-6.8 6.8-6.8s6.9 3 6.9 6.8-3.1 6.8-6.9 6.8zm7.1-12.3c-.9 0-1.6-.7-1.6-1.6s.7-1.6 1.6-1.6 1.6.7 1.6 1.6-.7 1.6-1.6 1.6z"/><path d="M28.3 5.2c-13.6 0-24.6 11-24.6 24.6 0 13.6 11 24.6 24.6 24.6 13.6 0 24.6-11 24.6-24.6.1-13.6-11-24.6-24.6-24.6zm13.1 30.4c0 2.3-.8 4.3-2.2 5.7-1.4 1.4-3.4 2.1-5.6 2.1H22.7c-2.2 0-4.2-.7-5.6-2.1-1.5-1.4-2.2-3.4-2.2-5.7v-11c0-4.6 3.1-7.8 7.8-7.8h11c2.3 0 4.2.8 5.6 2.2 1.4 1.4 2.1 3.3 2.1 5.6v11z"/></svg><svg version="1" width="18" height="8.2" viewBox="-49.92 -49.92 698.83 331.83" x="54" y="36" xmlns="http://www.w3.org/2000/svg"><path d="M68 19c-15.3 1.9-29 8.7-40 19.9C13.7 53.4 6.9 69.6 5.3 92.7c-2.5 38 17 70.8 48.2 81 6.7 2.2 9.9 2.6 20 2.7 6.9.1 13.7-.4 16-1.1 2.2-.7 8.4-4.2 13.8-7.7 9.9-6.6 14.1-8.2 17.7-7.1 2.8.9 5.1 5.7 5.7 12.1 1.4 13.1 2.3 3 2.5-27.4.2-25.3.6-32.7 1.6-32.8.6-.1 3.5-.2 6.2-.3 2.8 0 5-.6 5-1.1 0-.6-9.7-1-27-1s-27 .4-27 1 2.9 1 6.8 1c3.7 0 7.3.4 8 .9 1.1.6 1.3 5.1 1 21.2-.3 20.1-.3 20.5-3.1 25.7-5 9.4-16 14.9-28.2 14-14.4-1.2-25.3-12.1-31.9-31.9-8.1-24.3-8.1-65.5.1-88.4C49 30.2 65.4 18.8 85.6 22c16.9 2.7 27.3 14.1 33 36 1.5 5.8 2.7 8.6 3.8 8.8 1.4.3 1.6-2.2 1.6-24.3 0-22.9-.1-24.6-1.7-24.3-1 .2-1.9 1.3-2.1 2.6-.5 3.2-4.4 5.5-8 4.7-1.6-.3-7.1-1.9-12.2-3.6-10.3-3.2-21.5-4.3-32-2.9z"/><path d="M218 56.8c-9.1 4.5-9.4 20-.4 25.9 3.2 2 11.7 2.3 15.2.4 2.8-1.5 3.4-.1 2.3 5.1-1.4 6.3-3.3 10.4-9.3 20.1-5.8 9.4-18.9 27.7-19.9 27.7-.4 0-1.4-2.1-2.4-4.8-2-5.5-7.4-17.6-14-31.7-12-25.6-14.5-31.2-14.5-32.3 0-.8 2.1-1.2 6-1.2 5.7 0 6-.1 6-2.5V61h-54v2.5c0 2.4.3 2.5 5.4 2.5 3.1 0 5.8.5 6.4 1.2.5.7 10.5 22 22.1 47.3l21.1 45.9-4 8.4c-5.4 11-7.4 19-6.8 27.3.9 12.2 5.8 16.9 17.7 16.9 6.7 0 7.3-.2 10.8-3.4 3.5-3.2 3.7-3.8 4.1-10.2.2-5.6-.1-7.5-1.8-10.2-3.3-5.4-12.5-7.8-19.4-5.2-2.4.9-2.6.7-2.6-1.5 0-6.8 7.3-19.3 26.7-45.3 15.5-20.9 19.3-27 24.1-38.2 10.9-25.7 6.4-44-10.8-44-2.5 0-6.1.8-8 1.8zM549.4 58c-3.9 2.5-5.9 7.1-5.7 12.8.4 10 10.6 16.2 19.4 11.7 4.2-2.2 5.3-1.1 4.5 4.8-1 9.2-9 23.6-23.5 43l-6.6 8.8-3.2-6.8c-1.8-3.7-9.5-20.3-17.2-36.8l-13.8-30 6.8-.3c3.8-.2 6.9-.7 6.9-1.2 0-.6-9.9-1-25.5-1-16.3 0-25.5.4-25.5 1s2.6 1 5.8 1h5.8l17.1 37.2c9.4 20.5 19.2 42.1 21.8 48l4.8 10.8-3.6 7.7c-4.9 10.6-6.7 17.5-6.7 25.2 0 11.3 5.1 17.3 14.9 17.4 8.3.1 13.6-5.1 13.5-13.3-.1-5.3-2.6-10.3-6.1-11.9-3.1-1.4-11.8-1.4-14.5 0-3.1 1.7-3.8-.5-2.2-7.4 2.1-8.7 8.1-19.1 21.3-36.5 20.3-26.7 22.8-30.4 27.5-39.7 5.5-11.1 7.6-18.7 7.6-28 0-8.3-2-12.9-6.9-16.2-4.5-3-12.3-3.1-16.7-.3zm-244.1 3.9c-6.1 2.1-11.3 5.8-15 10.9-1.5 2-3.1 4.1-3.6 4.7-.5.6-.7-2.2-.6-6.5l.2-7.5-18.1-.3c-11.9-.2-18.2.1-18.2.8 0 .6 2.7 1 6.5 1h6.5v139h-6.5c-3.7 0-6.5.4-6.5 1s8.8 1 24.5 1 24.5-.4 24.5-1-2.8-1-6.5-1H286v-45.3l5.3 5.5c8.6 8.8 18.7 12 31.4 9.8 10.3-1.7 16.7-5.1 24.2-12.8 12-12.2 16.6-25 16.5-46.2-.1-11.8-.4-14.5-2.8-21.7C356.3 80 347.9 69.6 337 64c-8-4.2-22.9-5.2-31.7-2.1zm13 5.7c5.6 1.9 11.9 8.4 15.2 15.7 3.7 8.2 5.5 19.2 5.5 33.6 0 20.7-3.7 35-11.2 43.5-5.7 6.6-10.7 9-18.9 9-9.3 0-15.1-3.6-19.4-11.9l-3-5.9v-32.5c0-29.3.2-33.1 1.9-38 4.3-12.5 16.6-18 29.9-13.5zm80.7-5.1c-7.3 2-15.8 7.9-19.7 13.8-5.7 8.5-6.7 22-2.4 30.6 4.1 7.9 11.9 13 30.3 19.9 14.4 5.4 19.9 8.4 24.1 13.1 12.2 13.5 3.4 31.9-16.7 34.5-11.2 1.4-27.2-3.8-33.5-11-3.5-3.9-4.2-7.2-1.3-5.8.9.5 4.1.9 7 .9 4.8 0 5.7-.3 8.3-3.3 2.2-2.4 2.9-4.2 2.9-7.2 0-8.1-4.3-12.4-12.8-12.5-4.9 0-5.6.3-8.8 3.7-3.1 3.4-3.4 4.4-3.4 9.6 0 15.8 16.1 27.2 38.6 27.2 20.3 0 33.8-6.3 40.9-19.1 2.7-4.9 3-6.3 3-14.4 0-10.5-1.8-14.8-8.4-20.8-5.1-4.6-9.2-6.6-25.3-12.7-15.7-6-21-9.1-24.8-14.9-2.5-3.8-3-5.4-3-10.8 0-13.8 7.4-20.3 23.4-20.3 7.2 0 9 .4 14.4 3.1 3.4 1.7 7.5 4.7 9.2 6.7 4 4.8 8.7 14.7 9.6 20 1.4 9 2.4 3.4 2.4-13.9 0-11.7-.3-17.8-1-17.4-.5.3-1 1.3-1 2 0 2.2-3.8 3.7-7.3 3-1.8-.4-5.7-1.6-8.7-2.7-7.3-2.8-27.8-3.5-36-1.3zM564.8 148c-4.5 2.7-6.9 19.6-4 28.1 1.7 5 5.8 8.7 7.9 7.3 5.6-3.5 8.5-14.6 6.4-24.7-2-9.7-5.6-13.4-10.3-10.7zm5.4 2.2c.9 1.6 1.3 6.5 1.3 14.8 0 12.7-1 17-4 17-2.7 0-3.5-3.9-3.5-17 0-7.2.5-14 1-15.1 1.4-2.5 3.6-2.4 5.2.3zm9.8 5.8c0 9.2.8 11 2.9 6.4.6-1.4 1.7-2.4 2.4-2.1 1.7.5 2.9 8.3 2.2 14.2-.7 6.1-1.8 8-4 7.2-1.3-.6-1.5-1.5-1-5.1.8-5-.9-7.1-3.2-4-2.6 3.5.6 11.4 4.7 11.4 5.3 0 9.4-9.4 7.8-17.9-.9-5.4-4-8.5-7.5-7.6-2.3.5-2.4.3-2.1-3.2.3-3.8.3-3.8 5.1-4.1 3.9-.3 4.7-.6 4.7-2.3 0-1.7-.7-1.9-6-1.9h-6v9z"/></svg><svg height="18" width="18" viewBox="-3.54 -3.54 63.78 63.78" y="54" xmlns="http://www.w3.org/2000/svg"><path d="M30.374 4.622c-13.586 0-20.437 9.74-20.437 17.864 0 4.918 1.862 9.293 5.855 10.922.655.27 1.242.01 1.432-.715.132-.5.445-1.766.584-2.295.191-.717.117-.967-.412-1.594-1.151-1.357-1.888-3.115-1.888-5.607 0-7.226 5.407-13.695 14.079-13.695 7.679 0 11.898 4.692 11.898 10.957 0 8.246-3.649 15.205-9.065 15.205-2.992 0-5.23-2.473-4.514-5.508.859-3.623 2.524-7.531 2.524-10.148 0-2.34-1.257-4.292-3.856-4.292-3.058 0-5.515 3.164-5.515 7.401 0 2.699.912 4.525.912 4.525l-3.678 15.582c-1.092 4.625-.164 10.293-.085 10.865.046.34.482.422.68.166.281-.369 3.925-4.865 5.162-9.359.351-1.271 2.011-7.859 2.011-7.859.994 1.896 3.898 3.562 6.986 3.562 9.191 0 15.428-8.379 15.428-19.595.001-8.483-7.183-16.382-18.101-16.382z"/></svg><svg height="18" width="18" viewBox="-3.75 -3.75 67.5 67.5" x="18" y="54" xmlns="http://www.w3.org/2000/svg"><g fill="none" fill-rule="evenodd"><path d="M30 60c16.569 0 30-13.431 30-30C60 13.431 46.569 0 30 0 13.431 0 0 13.431 0 30c0 16.569 13.431 30 30 30z" fill="#000"/><path d="M32.76 39.084c6.605 0 11.086-6.147 11.086-14.376 0-6.22-5.163-12.016-13.007-12.016-9.763 0-14.685 7.146-14.685 13.104 0 3.608 1.337 6.817 4.208 8.014.47.196.891.006 1.028-.525.094-.369.32-1.298.419-1.684.138-.526.085-.71-.295-1.17-.827-.997-1.355-2.286-1.355-4.113 0-5.3 3.883-10.046 10.116-10.046 5.516 0 8.55 3.441 8.55 8.039 0 6.047-2.623 11.152-6.516 11.152-2.15 0-3.758-1.815-3.243-4.04.617-2.657 1.815-5.526 1.815-7.444 0-1.716-.903-3.15-2.772-3.15-2.198 0-3.963 2.322-3.963 5.43 0 1.98.657 3.32.657 3.32l-2.644 11.43c-.358 1.55-.412 3.254-.362 4.695.15 1.292 1.402 2.344 2.488.927.764-1.246 1.584-2.819 2.009-4.396.253-.932 1.446-5.765 1.446-5.765.715 1.39 2.801 2.614 5.02 2.614z" fill="#FFF"/></g></svg><svg viewBox="-1.87 -1.87 33.75 33.75" width="18" height="18" x="36" y="54" xmlns="http://www.w3.org/2000/svg"><circle cx="13" cy="13" r="9" fill="none" stroke="#000" stroke-width="2" stroke-miterlimit="10"/><path fill="none" stroke="#000" stroke-width="2" stroke-linecap="round" stroke-miterlimit="10" d="M26 26l-6.563-6.563"/></svg><svg height="18" width="18" viewBox="-3.54 -3.54 63.78 63.78" x="54" y="54" xmlns="http://www.w3.org/2000/svg"><path d="M28.66 51.683c-.128 0-.254-.004-.38-.01a3.24 3.24 0 0 1-.248.01c-2.944 0-4.834-1.336-6.661-2.628-1.262-.892-2.453-1.733-3.856-1.967a12.448 12.448 0 0 0-2.024-.17c-1.186 0-2.122.182-2.806.316-.415.081-.773.151-1.045.151-.285 0-.593-.061-.727-.519-.116-.397-.2-.78-.281-1.152-.209-.956-.357-1.544-.758-1.605-4.67-.722-6.006-1.705-6.304-2.403a.898.898 0 0 1-.072-.299.526.526 0 0 1 .44-.548c7.178-1.182 10.397-8.519 10.53-8.83l.012-.026c.44-.89.526-1.663.257-2.297-.493-1.16-2.1-1.67-3.163-2.008-.26-.082-.507-.16-.701-.237-2.123-.84-2.3-1.7-2.216-2.14.142-.747 1.142-1.268 1.95-1.268.222 0 .417.039.581.116.955.447 1.815.673 2.558.673 1.025 0 1.473-.43 1.528-.487-.026-.486-.059-.993-.092-1.517-.213-3.394-.478-7.61.595-10.018 3.218-7.215 10.043-7.776 12.057-7.776l.884-.009h.119c2.02 0 8.858.562 12.078 7.78 1.074 2.41.808 6.63.594 10.021l-.009.147c-.03.473-.058.932-.082 1.371.051.052.463.449 1.393.485h.001c.707-.028 1.52-.253 2.41-.67.262-.122.552-.148.75-.148.3 0 .607.058.86.164l.016.007c.721.255 1.193.76 1.204 1.289.009.497-.37 1.244-2.233 1.98-.193.076-.44.154-.7.237-1.065.338-2.671.848-3.164 2.008-.269.633-.183 1.406.257 2.297l.011.026c.134.311 3.35 7.646 10.532 8.83.265.043.454.28.44.548a.884.884 0 0 1-.074.3c-.296.693-1.632 1.675-6.303 2.397-.381.059-.53.556-.757 1.599-.083.38-.167.752-.282 1.144-.1.34-.312.5-.668.5h-.058c-.248 0-.6-.045-1.046-.133-.79-.154-1.677-.297-2.805-.297-.659 0-1.34.058-2.026.171-1.401.234-2.591 1.074-3.85 1.964-1.831 1.295-3.72 2.63-6.666 2.63z"/></svg><svg height="18" width="18" viewBox="-3.54 -3.54 63.78 63.78" x="72" xmlns="http://www.w3.org/2000/svg"><path d="M29.207 4.374c-13.6 0-24.625 11.023-24.625 24.623s11.025 24.625 24.625 24.625c13.598 0 24.624-11.026 24.624-24.625S42.805 4.374 29.207 4.374zm15.31 32.689c-.183.428-1.008 1.035-3.895 1.481-.236.036-.327.344-.468.988a9.953 9.953 0 0 1-.175.707c-.061.21-.192.309-.412.309h-.036c-.153 0-.37-.028-.646-.082a8.619 8.619 0 0 0-1.734-.183c-.407 0-.829.035-1.252.105-.866.145-1.601.664-2.38 1.214-1.131.8-2.3 1.626-4.12 1.626-.078 0-.156-.003-.234-.006-.05.004-.101.006-.153.006-1.82 0-2.988-.826-4.117-1.624-.78-.551-1.516-1.071-2.383-1.216a7.694 7.694 0 0 0-1.25-.105c-.734 0-1.312.113-1.734.195-.257.05-.478.094-.647.094-.175 0-.366-.038-.449-.321a10.105 10.105 0 0 1-.174-.712c-.129-.59-.22-.954-.468-.992-2.886-.446-3.712-1.054-3.896-1.485a.556.556 0 0 1-.044-.185.325.325 0 0 1 .272-.338c4.436-.73 6.425-5.265 6.508-5.458a.548.548 0 0 1 .007-.015c.271-.55.325-1.028.159-1.42-.305-.717-1.298-1.032-1.955-1.24a7.042 7.042 0 0 1-.434-.147c-1.311-.519-1.42-1.051-1.369-1.322.088-.463.706-.785 1.205-.785.137 0 .258.025.36.072.59.276 1.121.416 1.58.416.634 0 .91-.266.945-.3-.017-.301-.037-.615-.057-.938-.132-2.098-.296-4.704.368-6.191 1.988-4.46 6.206-4.806 7.45-4.806l.547-.005h.074c1.247 0 5.474.346 7.464 4.808.664 1.488.5 4.097.367 6.192l-.005.092c-.019.291-.036.575-.051.847.031.032.286.277.86.299h.001c.437-.017.939-.156 1.49-.414.161-.075.34-.091.463-.091.186 0 .375.036.532.101l.01.004c.445.158.737.47.743.797.006.307-.229.77-1.38 1.224a6.965 6.965 0 0 1-.433.146c-.658.209-1.65.524-1.954 1.241-.167.392-.113.869.158 1.42l.007.016c.083.192 2.07 4.725 6.509 5.456.164.027.28.173.272.34a.553.553 0 0 1-.046.185z"/></svg><svg height="18" width="18" viewBox="-3.54 -3.54 63.78 63.78" x="72" y="18" xmlns="http://www.w3.org/2000/svg"><path d="M52.837 15.065a20.11 20.11 0 0 1-5.805 1.591 10.125 10.125 0 0 0 4.444-5.592 20.232 20.232 0 0 1-6.418 2.454 10.093 10.093 0 0 0-7.377-3.192c-5.581 0-10.106 4.525-10.106 10.107 0 .791.089 1.562.262 2.303-8.4-.422-15.848-4.445-20.833-10.56a10.055 10.055 0 0 0-1.368 5.082c0 3.506 1.784 6.6 4.496 8.412a10.078 10.078 0 0 1-4.578-1.265l-.001.128c0 4.896 3.484 8.98 8.108 9.91a10.162 10.162 0 0 1-4.565.172c1.287 4.015 5.019 6.938 9.441 7.019a20.276 20.276 0 0 1-12.552 4.327c-.815 0-1.62-.048-2.411-.142a28.6 28.6 0 0 0 15.493 4.541c18.591 0 28.756-15.4 28.756-28.756 0-.438-.009-.875-.028-1.309a20.47 20.47 0 0 0 5.042-5.23z"/></svg><svg height="18" width="18" viewBox="-3.54 -3.54 63.78 63.78" x="72" y="36" xmlns="http://www.w3.org/2000/svg"><path d="M28.348 5.157c-13.6 0-24.625 11.027-24.625 24.625 0 13.6 11.025 24.623 24.625 24.623s24.623-11.023 24.623-24.623c0-13.598-11.024-24.625-24.623-24.625zm12.404 19.66c.013.266.018.533.018.803 0 8.201-6.242 17.656-17.656 17.656a17.572 17.572 0 0 1-9.513-2.787c.486.057.979.086 1.48.086a12.45 12.45 0 0 0 7.707-2.656 6.214 6.214 0 0 1-5.796-4.311 6.06 6.06 0 0 0 1.167.111c.566 0 1.114-.074 1.635-.217a6.21 6.21 0 0 1-4.979-6.084l.001-.08a6.184 6.184 0 0 0 2.811.777 6.204 6.204 0 0 1-2.761-5.166c0-1.137.306-2.204.84-3.12a17.618 17.618 0 0 0 12.792 6.483 6.206 6.206 0 0 1 6.045-7.619 6.2 6.2 0 0 1 4.529 1.959 12.395 12.395 0 0 0 3.941-1.506 6.223 6.223 0 0 1-2.73 3.433 12.407 12.407 0 0 0 3.565-.977 12.537 12.537 0 0 1-3.096 3.215z"/></svg></svg>