<svg width="108" height="90" xmlns="http://www.w3.org/2000/svg" xmlns:xlink="http://www.w3.org/1999/xlink"><svg class="aicon" viewBox="-2.21 -2.21 39.77 39.29" width="18" height="17.78" id="account" x="18" xmlns="http://www.w3.org/2000/svg"><defs><style>.acls-1{fill:#010101}</style></defs><g id="aLayer_2" data-name="Layer 2"><g id="aLayer_1-2" data-name="Layer 1"><path class="acls-1" d="M24.07 17.42a9.2 9.2 0 0 1-6.4 2.79A8.51 8.51 0 0 1 13 18.77a10.42 10.42 0 0 1-1.71-1.36A17.69 17.69 0 0 0 0 33.87a1 1 0 0 0 1 1h33.35a1 1 0 0 0 1-1 .75.75 0 0 0 0-.21 17.68 17.68 0 0 0-11.28-16.24z"/><path class="acls-1" d="M11.78 15a8.78 8.78 0 0 0 2.29 2.11 6.59 6.59 0 0 0 3.6 1.12c4.68 0 8.31-5.32 8.31-9.89a8.32 8.32 0 1 0-16.63 0 11.1 11.1 0 0 0 2.36 6.58z"/></g></g></svg><svg class="bicon" viewBox="-1 -1 14.5 17.79" width="14.5" height="17.79" id="bag" x="90" y="18" xmlns="http://www.w3.org/2000/svg"><g id="bLayer_2" data-name="Layer 2"><path d="M12.34 4.24a.69.69 0 0 0-.5-.19h-2.3v-.56A3.35 3.35 0 0 0 6.25 0 3.34 3.34 0 0 0 3 3.45v.6H.66a.69.69 0 0 0-.5.23.64.64 0 0 0-.16.49l.82 8.62a2.5 2.5 0 0 0 2.37 2.4h6.15a2.32 2.32 0 0 0 2.34-2.2l.82-8.85a.72.72 0 0 0-.16-.5zm-8.06-.79a2 2 0 0 1 2-2.17 2 2 0 0 1 2 2.17v.6h-4z" id="bLayer_1-2" data-name="Layer 1" fill="#010101"/></g></svg><svg class="cicon" viewBox="-1.29 -1.29 12.1 23.21" width="9.38" height="18" id="facebook" y="18" xmlns="http://www.w3.org/2000/svg"><g id="cLayer_2" data-name="Layer 2"><path d="M2.16 20.63h4.15v-10.4h2.9l.31-3.49H6.31v-2c0-.82.17-1.15 1-1.15h2.21V0H6.65c-3.1 0-4.49 1.36-4.49 4v2.74H0v3.53h2.16z" id="cLayer_1-2" data-name="Layer 1" fill="#231f20"/></g></svg><svg class="dicon" viewBox="-2.13 -2.13 38.37 38.37" width="18" height="18" id="facebook_c" x="9.38" y="18" xmlns="http://www.w3.org/2000/svg"><g id="dLayer_2" data-name="Layer 2"><path d="M17.05 0a17.06 17.06 0 1 0 17.06 17.05A17.06 17.06 0 0 0 17.05 0zm3.72 12.17H19c-.62 0-.75.25-.75.89v1.55h2.51l-.24 2.73h-2.26v8.13H15v-8.1h-1.68v-2.76H15v-2.17c0-2 1.09-3.1 3.51-3.1h2.25z" id="dLayer_1-2" data-name="Layer 1" fill="#231f20"/></g></svg><svg class="eicon" id="facebook_white" viewBox="-2.13 -2.13 38.36 38.36" width="18" height="18" x="36" xmlns="http://www.w3.org/2000/svg"><g id="eLayer_2_1_"><path d="M17 0C7.6 0 0 7.6 0 17.1c0 9.4 7.6 17.1 17.1 17.1s17.1-7.6 17.1-17.1C34.1 7.6 26.5 0 17 0zm3.8 12.2H19c-.6 0-.8.2-.8.9v1.6h2.5l-.2 2.7h-2.3v8.1H15v-8.1h-1.7v-2.8H15v-2.2c0-2 1.1-3.1 3.5-3.1h2.2l.1 2.9z" id="eLayer_1-2" fill="#fff"/></g></svg><svg class="ficon" viewBox="-1.55 -1.55 27.88 18.36" width="18" height="11.85" id="google" x="36" y="18" xmlns="http://www.w3.org/2000/svg"><defs><style>.fcls-1{fill:#231f20}</style></defs><g id="fLayer_2" data-name="Layer 2"><g id="fLayer_1-2" data-name="Layer 1"><path class="fcls-1" d="M14.59 7.17h-7.1v2h4.78a4.68 4.68 0 0 1-4.65 4 5.57 5.57 0 1 1 3.78-9.64L13 2.2a7.63 7.63 0 1 0-5.37 13.06c4 0 7-3.09 7-7.3zm2.47.08h7.73v1.87h-7.73z"/><path class="fcls-1" transform="rotate(90 20.92 8.19)" d="M17.06 7.25h7.73v1.87h-7.73z"/></g></g></svg><svg class="gicon" viewBox="-2.13 -2.13 38.37 38.37" width="18" height="18" id="google_c" y="36" xmlns="http://www.w3.org/2000/svg"><g id="gLayer_2" data-name="Layer 2"><path d="M17.05 0a17.06 17.06 0 1 0 17.06 17.05A17.06 17.06 0 0 0 17.05 0zm-2.43 22.36a6 6 0 1 1 4.19-10.22l-1.23 1.06a4.35 4.35 0 1 0-3 7.54 3.66 3.66 0 0 0 3.64-3.12h-3.7V16h5.54v.62a5.4 5.4 0 0 1-5.44 5.74zM28 17.56h-2.25v2.29h-1.46v-2.29H22V16.1h2.29v-2.29h1.46v2.29H28z" id="gLayer_1-2" data-name="Layer 1" fill="#231f20"/></g></svg><svg class="hicon" id="google_white" viewBox="-2.13 -2.13 38.36 38.36" width="18" height="18" x="18" y="36" xmlns="http://www.w3.org/2000/svg"><g id="hLayer_2_1_"><path d="M17 0C7.6 0 0 7.6 0 17.1c0 9.4 7.6 17.1 17.1 17.1s17.1-7.6 17.1-17.1C34.1 7.6 26.5 0 17 0zm-2.4 22.4c-3.3 0-6-2.6-6.1-5.9 0-3.3 2.6-6 5.9-6.1 1.6 0 3.2.6 4.3 1.8l-1.2 1.1c-1.8-1.6-4.5-1.5-6.1.2s-1.5 4.5.2 6.1c.8.7 1.8 1.1 2.9 1.2 1.8 0 3.4-1.3 3.6-3.1h-3.7V16h5.5v.6c.2 3-2.1 5.5-5 5.7 0 .1-.1.1-.3.1zM28 17.6h-2.2v2.3h-1.5v-2.3H22v-1.5h2.3v-2.3h1.5v2.3H28v1.5z" id="hLayer_1-2" fill="#fff"/></g></svg><svg class="iicon" viewBox="-1.09 -1.09 19.62 19.62" width="18" height="18" id="instagram" x="36" y="36" xmlns="http://www.w3.org/2000/svg"><defs><style>.icls-1{fill:#231f20}</style></defs><g id="iLayer_2" data-name="Layer 2"><g id="iLayer_1-2" data-name="Layer 1"><path class="icls-1" d="M8.72 1.57c2.33 0 2.61 0 3.53.05a4.73 4.73 0 0 1 1.61.3 2.83 2.83 0 0 1 1.66 1.66 4.81 4.81 0 0 1 .3 1.62v7.05a4.73 4.73 0 0 1-.3 1.61 2.83 2.83 0 0 1-1.66 1.66 4.73 4.73 0 0 1-1.61.3H5.2a4.81 4.81 0 0 1-1.62-.3 2.83 2.83 0 0 1-1.66-1.66 4.73 4.73 0 0 1-.3-1.61c0-.92-.05-1.2-.05-3.53s0-2.6.05-3.52a4.81 4.81 0 0 1 .3-1.62 2.83 2.83 0 0 1 1.66-1.66 4.81 4.81 0 0 1 1.62-.3c.92 0 1.19-.05 3.52-.05m0-1.57C6.35 0 6.06 0 5.13.05A6.21 6.21 0 0 0 3 .46 4.37 4.37 0 0 0 .46 3a6.21 6.21 0 0 0-.41 2.13v3.59c0 2.37 0 2.67.05 3.6a6.19 6.19 0 0 0 .41 2.11A4.37 4.37 0 0 0 3 17a6.21 6.21 0 0 0 2.12.41c.93 0 1.22.05 3.59.05s2.67 0 3.6-.05a6.19 6.19 0 0 0 2.12-.41A4.37 4.37 0 0 0 17 14.43a6.19 6.19 0 0 0 .41-2.11c0-.93.05-1.23.05-3.6s0-2.66-.05-3.59A6.21 6.21 0 0 0 17 3 4.37 4.37 0 0 0 14.43.46a6.19 6.19 0 0 0-2.11-.41h-3.6"/><path class="icls-1" d="M8.72 4.24a4.48 4.48 0 1 0 4.48 4.48 4.49 4.49 0 0 0-4.48-4.48m0 7.39a2.91 2.91 0 1 1 2.91-2.91 2.91 2.91 0 0 1-2.91 2.91m5.7-7.56a1 1 0 1 1-1-1.05 1 1 0 0 1 1 1.05"/></g></g></svg><svg class="jicon" viewBox="-2.13 -2.13 38.33 38.33" width="18" height="18" id="instagram_c" x="54" xmlns="http://www.w3.org/2000/svg"><defs><style>.jcls-1{fill:#231f20}</style></defs><g id="jLayer_2" data-name="Layer 2"><g id="jLayer_1-2" data-name="Layer 1"><path class="jcls-1" d="M22.37 13.37a2.27 2.27 0 0 0-1.29-1.29 3.57 3.57 0 0 0-1.27-.24H14.3a3.57 3.57 0 0 0-1.27.24 2.27 2.27 0 0 0-1.29 1.29 3.57 3.57 0 0 0-.24 1.27v5.51a3.62 3.62 0 0 0 .24 1.27 2.11 2.11 0 0 0 .51.78 2 2 0 0 0 .78.51 3.81 3.81 0 0 0 1.27.29h5.51a3.81 3.81 0 0 0 1.27-.24 2 2 0 0 0 .78-.51 2.11 2.11 0 0 0 .51-.78 3.87 3.87 0 0 0 .24-1.27v-5.51a3.81 3.81 0 0 0-.24-1.32zm-5.32 7.53a3.51 3.51 0 1 1 3.51-3.51 3.51 3.51 0 0 1-3.51 3.51zm3.65-6.33a.82.82 0 1 1 .81-.82.82.82 0 0 1-.81.82z"/><path class="jcls-1" d="M17.05 15.12a2.28 2.28 0 1 0 2.28 2.27 2.27 2.27 0 0 0-2.28-2.27z"/><path class="jcls-1" d="M17 0a17 17 0 1 0 17 17A17 17 0 0 0 17 0zm6.79 20.21a4.89 4.89 0 0 1-.31 1.65 3.52 3.52 0 0 1-2 2 5.15 5.15 0 0 1-1.65.31H14.2a5.15 5.15 0 0 1-1.65-.31 3.52 3.52 0 0 1-2-2 5.12 5.12 0 0 1-.32-1.65v-5.63a5.12 5.12 0 0 1 .32-1.65 3.42 3.42 0 0 1 .79-1.21 3.29 3.29 0 0 1 1.21-.79 5.12 5.12 0 0 1 1.65-.32h5.63a5.12 5.12 0 0 1 1.65.32 3.29 3.29 0 0 1 1.21.79 3.42 3.42 0 0 1 .79 1.21 4.89 4.89 0 0 1 .31 1.65v2.81c0 1.81.08 2.09.04 2.82z"/></g></g></svg><svg class="kicon" id="instagram_white" viewBox="-2.13 -2.13 38.36 38.36" width="18" height="18" x="54" y="18" xmlns="http://www.w3.org/2000/svg"><style>.kst0{fill:#fff}</style><g id="kLayer_2_1_"><g id="kLayer_1-2"><path class="kst0" d="M22.4 13.4c-.2-.6-.7-1.1-1.3-1.3-.4-.2-.8-.2-1.3-.2h-5.6c-.4 0-.9.1-1.3.2-.6.2-1.1.7-1.3 1.3-.2.4-.2.8-.2 1.3v5.6c0 .4.1.9.2 1.3.1.3.3.6.5.8.2.2.5.4.8.5.4.2.8.3 1.3.3h5.5c.4 0 .9-.1 1.3-.2.3-.1.6-.3.8-.5.2-.2.4-.5.5-.8.2-.4.2-.8.2-1.3v-5.6c.1-.6 0-1-.1-1.4zM17 20.9c-1.9 0-3.5-1.6-3.5-3.5s1.6-3.5 3.5-3.5 3.5 1.6 3.5 3.5-1.5 3.5-3.5 3.5zm3.7-6.3c-.5 0-.8-.4-.8-.8 0-.5.4-.8.8-.8.5 0 .8.4.8.8s-.4.8-.8.8z"/><path class="kst0" d="M17 15.1c-1.3 0-2.3 1-2.3 2.3 0 1.3 1 2.3 2.3 2.3 1.3 0 2.3-1 2.3-2.3 0-1.3-1-2.3-2.3-2.3.1 0 .1 0 0 0z"/><path class="kst0" d="M17 0C7.6 0 0 7.6 0 17s7.6 17 17 17 17-7.6 17-17S26.4 0 17 0zm6.8 20.2c0 .6-.1 1.1-.3 1.6-.4.9-1.1 1.6-2 2-.5.2-1.1.3-1.6.3h-5.6c-.6 0-1.1-.1-1.6-.3-.9-.4-1.6-1.1-2-2-.2-.5-.3-1.1-.3-1.6v-5.6c0-.6.1-1.1.3-1.6.2-.5.4-.9.8-1.2.3-.3.8-.6 1.2-.8.5-.2 1.1-.3 1.6-.3h5.6c.6 0 1.1.1 1.6.3.5.2.9.4 1.2.8.3.3.6.8.8 1.2.2.5.3 1.1.3 1.6v2.8c0 1.8.1 2.1 0 2.8z"/></g></g></svg><svg class="licon" viewBox="-1.35 -1.35 19.47 24.36" width="14.39" height="18" id="pinterest" x="54" y="36" xmlns="http://www.w3.org/2000/svg"><g id="lLayer_2" data-name="Layer 2"><path d="M2.55 12.52a.42.42 0 0 0 .62-.31c.06-.22.19-.77.25-1a.58.58 0 0 0-.18-.69 3.6 3.6 0 0 1-.82-2.44 5.9 5.9 0 0 1 6.13-6c3.34 0 5.17 2 5.17 4.77 0 3.59-1.58 6.61-3.94 6.61a1.92 1.92 0 0 1-2-2.39c.37-1.58 1.09-3.28 1.09-4.42a1.65 1.65 0 0 0-1.63-1.82c-1.33 0-2.4 1.37-2.4 3.17a4.73 4.73 0 0 0 .4 2s-1.37 5.77-1.6 6.78a13.72 13.72 0 0 0 0 4.73.16.16 0 0 0 .29.07 13.17 13.17 0 0 0 2.25-4.07C6.29 17 7 14.1 7 14.1a3.59 3.59 0 0 0 3 1.55c4 0 6.71-3.65 6.71-8.52C16.76 3.44 13.64 0 8.89 0 3 0 0 4.24 0 7.77c0 2.14.81 4.04 2.55 4.75z" id="lLayer_1-2" data-name="Layer 1" fill="#231f20"/></g></svg><svg class="micon" viewBox="-2.13 -2.13 38.37 38.37" width="18" height="18" id="pinterest_c" y="54" xmlns="http://www.w3.org/2000/svg"><g id="mLayer_2" data-name="Layer 2"><path d="M17.05 0a17.06 17.06 0 1 0 17.06 17.05A17.06 17.06 0 0 0 17.05 0zm1.85 21.92a2.81 2.81 0 0 1-2.38-1.21S16 23 15.84 23.38a10.12 10.12 0 0 1-1.76 3.18.13.13 0 0 1-.23 0 10.91 10.91 0 0 1 0-3.7c.19-.79 1.25-5.3 1.25-5.3a3.74 3.74 0 0 1-.28-1.56c0-1.44.84-2.52 1.88-2.52a1.31 1.31 0 0 1 1.3 1.43 21.38 21.38 0 0 1-.86 3.46 1.51 1.51 0 0 0 1.54 1.87c1.84 0 3.08-2.37 3.08-5.17 0-2.14-1.44-3.73-4.05-3.73A4.61 4.61 0 0 0 12.93 16a2.83 2.83 0 0 0 .64 1.91.46.46 0 0 1 .14.54c0 .18-.15.61-.19.78a.34.34 0 0 1-.49.24c-1.36-.55-2-2-2-3.71 0-2.77 2.33-6.08 7-6.08 3.71 0 6.16 2.69 6.16 5.57-.04 3.82-2.19 6.67-5.29 6.67z" id="mLayer_1-2" data-name="Layer 1" fill="#231f20"/></g></svg><svg class="nicon" id="pinterest_white" viewBox="-2.13 -2.13 38.36 38.36" width="18" height="18" xmlns="http://www.w3.org/2000/svg"><g id="nLayer_2_1_"><path d="M17 0C7.6 0 0 7.6 0 17.1c0 9.4 7.6 17.1 17.1 17.1s17.1-7.6 17.1-17.1C34.1 7.6 26.5 0 17 0zm1.9 21.9c-.9 0-1.8-.4-2.4-1.2 0 0-.5 2.3-.7 2.7-.4 1.2-1 2.2-1.8 3.2 0 .1-.1.1-.2.1l-.1-.1c-.2-1.2-.2-2.5 0-3.7.2-.8 1.2-5.3 1.2-5.3-.2-.5-.3-1-.3-1.6 0-1.4.8-2.5 1.9-2.5.7 0 1.3.6 1.3 1.3v.1c-.2 1.2-.5 2.3-.9 3.5-.2.8.3 1.6 1.1 1.8h.4c1.8 0 3.1-2.4 3.1-5.2 0-2.1-1.4-3.7-4.1-3.7-2.5-.1-4.7 1.9-4.8 4.4v.2c0 .7.2 1.4.6 1.9.2.1.2.3.1.5 0 .2-.1.6-.2.8 0 .2-.2.3-.4.3h-.1c-1.4-.5-2-2-2-3.7 0-2.8 2.3-6.1 7-6.1 3.7 0 6.2 2.7 6.2 5.6.3 3.9-1.8 6.7-4.9 6.7z" id="nLayer_1-2" fill="#fff"/></g></svg><svg class="oicon" viewBox="-1.26 -1.26 22.76 22.47" width="18" height="17.77" id="search" x="36" y="54" xmlns="http://www.w3.org/2000/svg"><defs><style>.ocls-1{fill:none;stroke:#231f20;stroke-miterlimit:10;stroke-width:3px}</style></defs><g id="oLayer_2" data-name="Layer 2"><g id="oLayer_1-2" data-name="Layer 1"><circle class="ocls-1" cx="7.8" cy="7.8" r="6.3"/><path class="ocls-1" d="M12.4 12.11l6.77 6.77"/></g></g></svg><svg class="picon" viewBox="-1.12 -1.12 20.23 17.41" width="18" height="15.49" id="shoppingCart" x="54" y="54" xmlns="http://www.w3.org/2000/svg"><g id="pLayer_2" data-name="Layer 2"><path d="M18 2.07v5.51a.69.69 0 0 1-.2.42.7.7 0 0 1-.44.23L6.08 9.58a5 5 0 0 1 .14.76A2 2 0 0 1 6 11h9.9a.69.69 0 1 1 0 1.37H4.84a.66.66 0 0 1-.49-.2.7.7 0 0 1-.2-.49 1.17 1.17 0 0 1 .08-.33 3.66 3.66 0 0 1 .18-.35c0-.11.13-.26.23-.43l.17-.32-1.92-8.87H.69a.63.63 0 0 1-.48-.21A.63.63 0 0 1 0 .69.67.67 0 0 1 .21.2.66.66 0 0 1 .69 0h2.77a.6.6 0 0 1 .3.07.56.56 0 0 1 .24.17 1.22 1.22 0 0 1 .12.26 1.56 1.56 0 0 1 .08.28 3.14 3.14 0 0 1 .06.32v.28h13a.69.69 0 0 1 .48.2.67.67 0 0 1 .26.49zM6.5 12.81a1.32 1.32 0 0 1 .41 1 1.3 1.3 0 0 1-.41 1 1.32 1.32 0 0 1-1 .41 1.4 1.4 0 0 1-1.38-1.38 1.36 1.36 0 0 1 .41-1 1.34 1.34 0 0 1 1-.41 1.32 1.32 0 0 1 .97.38zm9.68 0a1.32 1.32 0 0 1 .41 1 1.3 1.3 0 0 1-.41 1 1.35 1.35 0 0 1-1.94 0 1.3 1.3 0 0 1-.41-1 1.32 1.32 0 0 1 .41-1 1.35 1.35 0 0 1 1.94 0z" id="pLayer_1-2" data-name="Layer 1" fill="#010101"/></g></svg><svg class="qicon" viewBox="-1.29 -1.29 23.18 21.8" width="18" height="16.93" id="snapchat" x="72" xmlns="http://www.w3.org/2000/svg"><g id="qLayer_2" data-name="Layer 2"><path d="M20.39 14.66a2.48 2.48 0 0 0-.66-.23 5.59 5.59 0 0 1-2.68-2 6.45 6.45 0 0 1-.92-1.61.76.76 0 0 1 0-.68 1.92 1.92 0 0 1 .92-.58 3.75 3.75 0 0 0 1.25-.65 1.15 1.15 0 0 0 .18-.23v-.09a.54.54 0 0 0 0-.33 1 1 0 0 0-.43-.42.9.9 0 0 0-.75-.06 5.44 5.44 0 0 1-.66.19 1.57 1.57 0 0 1-.75 0 1.31 1.31 0 0 0 0-.17V6.39a13.24 13.24 0 0 0-.06-2.26A5.07 5.07 0 0 0 13.73 1a5.26 5.26 0 0 0-2.59-1h-.93a5.82 5.82 0 0 0-3.55 1.13 5.71 5.71 0 0 0-1.73 2.25 6.49 6.49 0 0 0-.28 2.75 13.91 13.91 0 0 1 0 1.81A2.67 2.67 0 0 1 3.8 8c-.2 0-.43-.12-.68-.19a.87.87 0 0 0-.67.15.66.66 0 0 0-.37.54.63.63 0 0 0 .22.37l.24.17a6.27 6.27 0 0 0 1.4.61 1 1 0 0 1 .62.59 1.67 1.67 0 0 1-.25 1.07 6.61 6.61 0 0 1-2.12 2.43 5.19 5.19 0 0 1-1.55.71.84.84 0 0 0-.55.32v.06a.45.45 0 0 0 .09.43.8.8 0 0 0 .24.19A5.66 5.66 0 0 0 1.8 16a4.82 4.82 0 0 1 .89.22s0 .11.1.25.12.55.22.87a.25.25 0 0 0 .19.17.58.58 0 0 0 .35 0 5.46 5.46 0 0 1 2.27-.08A8.72 8.72 0 0 1 8 18.58a3.49 3.49 0 0 0 1.7.62 11.46 11.46 0 0 0 1.44 0 2.77 2.77 0 0 0 1.14-.39c.77-.44 1.46-1 2.21-1.3a3.77 3.77 0 0 1 .89-.1 11.59 11.59 0 0 1 1.86.09.06.06 0 0 0 .06 0 .34.34 0 0 0 .22-.12.3.3 0 0 0 .06-.13c0-.06 0-.09 0 0a.08.08 0 0 0 0-.05 2.63 2.63 0 0 1 .36-.92.54.54 0 0 1 .38-.11 7.29 7.29 0 0 0 1.48-.42 1.29 1.29 0 0 0 .6-.4.43.43 0 0 0-.13-.61z" id="qLayer_1-2" data-name="Layer 1" fill="#231f20" fill-rule="evenodd"/></g></svg><svg class="ricon" viewBox="-2.13 -2.13 38.37 38.37" width="18" height="18" id="snapchat_c" x="72" y="16.93" xmlns="http://www.w3.org/2000/svg"><g id="rLayer_2" data-name="Layer 2"><path d="M17.05 0a17.06 17.06 0 1 0 17.06 17.05A17.06 17.06 0 0 0 17.05 0zm8.28 20.89a1.07 1.07 0 0 1-.47.32 5.06 5.06 0 0 1-1.16.33.43.43 0 0 0-.3.09 2.12 2.12 0 0 0-.28.72.28.28 0 0 1-.06.1.24.24 0 0 1-.16.09h-.05a10.2 10.2 0 0 0-1.46-.07 3.36 3.36 0 0 0-.69.08 20 20 0 0 0-1.73 1A2 2 0 0 1 18 24a8.5 8.5 0 0 1-1.13 0 2.71 2.71 0 0 1-1.33-.49 6.81 6.81 0 0 0-1.67-.9 4.3 4.3 0 0 0-1.78.06.4.4 0 0 1-.27 0 .2.2 0 0 1-.15-.13c-.07-.25-.1-.49-.17-.69a1.85 1.85 0 0 1-.07-.19 3.9 3.9 0 0 0-.71-.17 4.34 4.34 0 0 1-1.13-.39.6.6 0 0 1-.18-.15.36.36 0 0 1-.07-.34.73.73 0 0 1 .43-.26 4.22 4.22 0 0 0 1.23-.62 5.16 5.16 0 0 0 1.66-1.9 1.34 1.34 0 0 0 .19-.84.78.78 0 0 0-.49-.46 5.42 5.42 0 0 1-1.09-.48l-.18-.13a.48.48 0 0 1-.18-.29.5.5 0 0 1 .28-.42.62.62 0 0 1 .51-.21 4.88 4.88 0 0 0 .53.15 1.84 1.84 0 0 0 .7 0 11.23 11.23 0 0 0 0-1.41 5 5 0 0 1 .22-2.15 4.48 4.48 0 0 1 1.35-1.76A4.55 4.55 0 0 1 17.26 9H18a4.11 4.11 0 0 1 2 .72 4 4 0 0 1 1.66 2.46 10.4 10.4 0 0 1 0 1.76v1.1a.78.78 0 0 1 0 .13 1.27 1.27 0 0 0 .59 0 4 4 0 0 0 .52-.15.72.72 0 0 1 .59.05.82.82 0 0 1 .34.33.39.39 0 0 1 0 .26.14.14 0 0 0 0 .06.56.56 0 0 1-.14.18 2.69 2.69 0 0 1-1 .5 1.5 1.5 0 0 0-.72.46.63.63 0 0 0 0 .54 4.58 4.58 0 0 0 .71 1.25 4.37 4.37 0 0 0 2.1 1.53 1.85 1.85 0 0 1 .51.18.33.33 0 0 1 .17.53z" id="rLayer_1-2" data-name="Layer 1" fill="#231f20"/></g></svg><svg class="sicon" id="snapchat_white" viewBox="-2.13 -2.13 38.36 38.36" width="18" height="18" x="72" y="34.93" xmlns="http://www.w3.org/2000/svg"><g id="sLayer_2_1_"><path d="M17 0C7.6 0 0 7.6 0 17.1c0 9.4 7.6 17.1 17.1 17.1s17.1-7.6 17.1-17.1C34.1 7.6 26.5 0 17 0zm8.3 20.9c-.1.1-.3.3-.5.3-.4.2-.8.3-1.2.3-.1 0-.2 0-.3.1-.1.2-.2.5-.3.7 0 0 0 .1-.1.1 0 .1-.1.1-.2.1m.2 0c-.5-.1-1-.1-1.5-.1-.2 0-.5 0-.7.1-.6.3-1.2.6-1.7 1-.3.2-.6.4-1 .5h-1.1c-.5 0-.9-.2-1.3-.5-.5-.4-1.1-.7-1.7-.9-.6-.1-1.2-.1-1.8.1h-.3c-.1 0-.1-.1-.1-.1-.1-.2-.1-.5-.2-.7 0-.1-.1-.1-.1-.2-.2-.1-.5-.1-.7-.2-.4-.1-.8-.2-1.1-.4-.1 0-.1-.1-.2-.1-.1-.1-.1-.2-.1-.3.1-.1.3-.2.4-.3.4-.1.9-.3 1.2-.6.7-.5 1.3-1.1 1.7-1.9.2-.3.2-.5.2-.8-.1-.2-.3-.4-.5-.5-.4-.1-.7-.3-1.1-.5L11 16c-.1-.1-.2-.2-.2-.3 0-.2.1-.3.3-.4.1-.1.3-.2.5-.2.2.1.4.1.5.1h.7v-1.4c-.1-.7 0-1.5.2-2.1.3-.7.8-1.3 1.4-1.8.9-.6 1.9-.9 2.9-.9h.7c.7.1 1.4.3 2 .7.8.6 1.4 1.5 1.7 2.5v3h.6c.2 0 .4-.1.5-.1.2-.1.4-.1.6.1.1.1.3.2.3.3v.4c0 .1-.1.1-.1.2-.3.2-.6.4-1 .5-.3.1-.5.2-.7.5-.1.2-.1.4 0 .5.2.5.4.9.7 1.2.5.7 1.3 1.2 2.1 1.5.2 0 .3.1.5.2.2 0 .3.2.2.4 0 0 0 .1-.1.1l-2.4 1.5z" id="sLayer_1-2" fill="#fff"/></g></svg><svg class="ticon" viewBox="-2.54 -2.54 45.71 45.71" width="18" height="18" id="sort" x="72" y="52.93" xmlns="http://www.w3.org/2000/svg"><g id="tLayer_2" data-name="Layer 2"><path d="M16.69 22a5.94 5.94 0 0 1-11.37 0H1.69a1.7 1.7 0 0 1 0-3.39h3.63a5.94 5.94 0 0 1 11.37 0h22.25a1.7 1.7 0 0 1 0 3.39zM24 33a5.92 5.92 0 0 1 11.36 0h3.63a1.69 1.69 0 1 1 0 3.38h-3.68A5.93 5.93 0 0 1 24 36.4H1.69a1.69 1.69 0 1 1 0-3.38zm0-28.77a5.93 5.93 0 0 1 11.36 0h3.63a1.7 1.7 0 0 1 0 3.39h-3.68a5.93 5.93 0 0 1-11.31 0H1.69a1.7 1.7 0 0 1 0-3.39zm5.68 4.24a2.54 2.54 0 1 0-2.54-2.54 2.54 2.54 0 0 0 2.49 2.54zm0 28.78a2.54 2.54 0 1 0-2.54-2.54 2.54 2.54 0 0 0 2.49 2.54zM11 17.78a2.54 2.54 0 1 0 2.53 2.54A2.53 2.53 0 0 0 11 17.78z" id="tLayer_1-2" data-name="Layer 1" fill="#010101"/></g></svg><svg class="uicon" viewBox="-1.33 -1.33 15.79 24" width="11.84" height="18" id="tumblr" y="72" xmlns="http://www.w3.org/2000/svg"><g id="uLayer_2" data-name="Layer 2"><path d="M2.34 16.23a6.42 6.42 0 0 0 .3 2.23 3.83 3.83 0 0 0 1.1 1.45A5.57 5.57 0 0 0 5.66 21a8.46 8.46 0 0 0 2.58.36 10.72 10.72 0 0 0 2.4-.25 13.43 13.43 0 0 0 2.48-.91v-3.38a5.86 5.86 0 0 1-3.23 1.05 3.1 3.1 0 0 1-1.62-.42 1.65 1.65 0 0 1-.73-.84 8.9 8.9 0 0 1-.19-2.39V8.75h5.06V5.4H7.35V0h-3a8.24 8.24 0 0 1-.74 2.72 5.81 5.81 0 0 1-1.46 1.82A6.19 6.19 0 0 1 0 5.71v3h2.34z" id="uLayer_1-2" data-name="Layer 1" fill="#231f20"/></g></svg><svg class="vicon" viewBox="-2.13 -2.13 38.37 38.37" width="18" height="18" id="tumblr_c" x="11.84" y="72" xmlns="http://www.w3.org/2000/svg"><g id="vLayer_2" data-name="Layer 2"><path d="M17.05 0a17.06 17.06 0 1 0 17.06 17.05A17.06 17.06 0 0 0 17.05 0zm5 24a10.06 10.06 0 0 1-1.94.7 8 8 0 0 1-1.87.2 6.6 6.6 0 0 1-2-.28 4.54 4.54 0 0 1-1.5-.83 3 3 0 0 1-.86-1.13 5 5 0 0 1-.24-1.75v-5.86h-1.83v-2.37a5 5 0 0 0 1.68-.92 4.51 4.51 0 0 0 1.12-1.43 6.55 6.55 0 0 0 .58-2.12h2.36v4.23h4v2.61h-4v4.28a6.5 6.5 0 0 0 .16 1.87 1.29 1.29 0 0 0 .57.66 2.42 2.42 0 0 0 1.26.33 4.58 4.58 0 0 0 2.53-.83z" id="vLayer_1-2" data-name="Layer 1" fill="#231f20"/></g></svg><svg class="wicon" id="tumblr_white" viewBox="-2.13 -2.13 38.36 38.36" width="18" height="18" x="29.84" y="72" xmlns="http://www.w3.org/2000/svg"><g id="wLayer_2_1_"><path d="M17 0C7.6 0 0 7.6 0 17.1c0 9.4 7.6 17.1 17.1 17.1s17.1-7.6 17.1-17.1C34.1 7.6 26.5 0 17 0zm5 24c-.6.3-1.3.5-1.9.7-.6.1-1.2.2-1.9.2s-1.4-.1-2-.3c-.5-.2-1.1-.5-1.5-.8-.4-.3-.7-.7-.9-1.1-.2-.6-.3-1.2-.2-1.8V15h-1.8v-2.4c.6-.2 1.2-.5 1.7-.9s.8-.9 1.1-1.4c.3-.7.5-1.4.6-2.1h2.4v4.2h4V15h-4v4.3c0 .6 0 1.3.2 1.9.1.3.3.5.6.7.4.2.8.3 1.3.3.9 0 1.8-.3 2.5-.8L22 24z" id="wLayer_1-2" fill="#fff"/></g></svg><svg class="xicon" viewBox="-1.03 -1.03 18.63 15.53" width="18" height="15" id="twitter" x="47.84" y="72" xmlns="http://www.w3.org/2000/svg"><g id="xLayer_2" data-name="Layer 2"><path d="M0 11.93a9.65 9.65 0 0 0 5.21 1.53 9.61 9.61 0 0 0 9.65-10.11 6.94 6.94 0 0 0 1.7-1.76 6.8 6.8 0 0 1-1.95.54A3.4 3.4 0 0 0 16.1.25a6.71 6.71 0 0 1-2.16.82 3.4 3.4 0 0 0-5.79 3.1 9.63 9.63 0 0 1-7-3.55A3.41 3.41 0 0 0 2.2 5.16a3.31 3.31 0 0 1-1.53-.43 3.4 3.4 0 0 0 2.72 3.38 3.28 3.28 0 0 1-1.53.05A3.39 3.39 0 0 0 5 10.52a6.85 6.85 0 0 1-5 1.41z" id="xLayer_1-2" data-name="Layer 1" fill="#231f20"/></g></svg><svg class="yicon" viewBox="-2.13 -2.13 38.37 38.37" width="18" height="18" id="twitter_c" x="18" y="54" xmlns="http://www.w3.org/2000/svg"><g id="yLayer_2" data-name="Layer 2"><path d="M17.05 0a17.06 17.06 0 1 0 17.06 17.05A17.06 17.06 0 0 0 17.05 0zm6.43 15.25A7.56 7.56 0 0 1 11.85 22a5.32 5.32 0 0 0 3.94-1.1A2.67 2.67 0 0 1 13.3 19a2.83 2.83 0 0 0 1.2 0 2.67 2.67 0 0 1-2.13-2.64 2.6 2.6 0 0 0 1.21.33 2.65 2.65 0 0 1-.83-3.54 7.56 7.56 0 0 0 5.48 2.77 2.66 2.66 0 0 1 4.53-2.42 5.2 5.2 0 0 0 1.68-.65 2.59 2.59 0 0 1-1.16 1.47 5.18 5.18 0 0 0 1.52-.41 5.21 5.21 0 0 1-1.32 1.34z" id="yLayer_1-2" data-name="Layer 1" fill="#231f20"/></g></svg><svg class="zicon" id="twitter_white" viewBox="-2.13 -2.13 38.36 38.36" width="18" height="18" x="90" xmlns="http://www.w3.org/2000/svg"><g id="zLayer_2_1_"><path d="M17 0C7.6 0 0 7.6 0 17.1c0 9.4 7.6 17.1 17.1 17.1s17.1-7.6 17.1-17.1C34.1 7.6 26.5 0 17 0zm6.5 15.2c.2 4.2-3 7.7-7.2 7.9-1.6.1-3.1-.3-4.5-1.2 1.4.2 2.8-.2 3.9-1.1-1.2 0-2.2-.8-2.5-1.9.4.1.8.1 1.2 0-1.2-.3-2.1-1.4-2.1-2.6.4.2.8.3 1.2.3-1.2-.8-1.5-2.3-.8-3.5 1.4 1.7 3.3 2.7 5.5 2.8-.3-1.4.6-2.9 2-3.2.9-.2 1.9.1 2.5.8.6-.1 1.2-.3 1.7-.6-.2.6-.6 1.1-1.2 1.5.5-.1 1-.2 1.5-.4-.3.4-.7.9-1.2 1.2z" id="zLayer_1-2" fill="#fff"/></g></svg></svg>