<svg class="icon" xmlns="http://www.w3.org/2000/svg" viewBox="0 0 16.76 21.65"><g data-name="Layer 2"><path d="M2.55 12.52a.42.42 0 0 0 .62-.31c.06-.22.19-.77.25-1a.58.58 0 0 0-.18-.69 3.6 3.6 0 0 1-.82-2.44 5.9 5.9 0 0 1 6.13-6c3.34 0 5.17 2 5.17 4.77 0 3.59-1.58 6.61-3.94 6.61a1.92 1.92 0 0 1-2-2.39c.37-1.58 1.09-3.28 1.09-4.42a1.65 1.65 0 0 0-1.63-1.82c-1.33 0-2.4 1.37-2.4 3.17a4.73 4.73 0 0 0 .4 2s-1.37 5.77-1.6 6.78a13.72 13.72 0 0 0 0 4.73.16.16 0 0 0 .29.07 13.17 13.17 0 0 0 2.25-4.07C6.29 17 7 14.1 7 14.1a3.59 3.59 0 0 0 3 1.55c4 0 6.71-3.65 6.71-8.52C16.76 3.44 13.64 0 8.89 0 3 0 0 4.24 0 7.77c0 2.14.81 4.04 2.55 4.75z" fill="#231f20" data-name="Layer 1"/></g></svg>