<svg class="icon" xmlns="http://www.w3.org/2000/svg" viewBox="0 0 40.63 40.63"><g data-name="Layer 2"><path d="M16.69 22a5.94 5.94 0 0 1-11.37 0H1.69a1.7 1.7 0 0 1 0-3.39h3.63a5.94 5.94 0 0 1 11.37 0h22.25a1.7 1.7 0 0 1 0 3.39zM24 33a5.92 5.92 0 0 1 11.36 0h3.63a1.69 1.69 0 1 1 0 3.38h-3.68A5.93 5.93 0 0 1 24 36.4H1.69a1.69 1.69 0 1 1 0-3.38zm0-28.77a5.93 5.93 0 0 1 11.36 0h3.63a1.7 1.7 0 0 1 0 3.39h-3.68a5.93 5.93 0 0 1-11.31 0H1.69a1.7 1.7 0 0 1 0-3.39zm5.68 4.24a2.54 2.54 0 1 0-2.54-2.54 2.54 2.54 0 0 0 2.49 2.54zm0 28.78a2.54 2.54 0 1 0-2.54-2.54 2.54 2.54 0 0 0 2.49 2.54zM11 17.78a2.54 2.54 0 1 0 2.53 2.54A2.53 2.53 0 0 0 11 17.78z" fill="#010101" data-name="Layer 1"/></g></svg>