<svg class="icon" xmlns="http://www.w3.org/2000/svg" viewBox="0 0 34.1 34.1"><path d="M17 0C7.6 0 0 7.6 0 17.1c0 9.4 7.6 17.1 17.1 17.1s17.1-7.6 17.1-17.1C34.1 7.6 26.5 0 17 0zm1.9 21.9c-.9 0-1.8-.4-2.4-1.2 0 0-.5 2.3-.7 2.7-.4 1.2-1 2.2-1.8 3.2 0 .1-.1.1-.2.1l-.1-.1c-.2-1.2-.2-2.5 0-3.7.2-.8 1.2-5.3 1.2-5.3-.2-.5-.3-1-.3-1.6 0-1.4.8-2.5 1.9-2.5.7 0 1.3.6 1.3 1.3v.1c-.2 1.2-.5 2.3-.9 3.5-.2.8.3 1.6 1.1 1.8h.4c1.8 0 3.1-2.4 3.1-5.2 0-2.1-1.4-3.7-4.1-3.7-2.5-.1-4.7 1.9-4.8 4.4v.2c0 .7.2 1.4.6 1.9.2.1.2.3.1.5 0 .2-.1.6-.2.8 0 .2-.2.3-.4.3h-.1c-1.4-.5-2-2-2-3.7 0-2.8 2.3-6.1 7-6.1 3.7 0 6.2 2.7 6.2 5.6.3 3.9-1.8 6.7-4.9 6.7z" fill="#fff"/></svg>