<svg class="icon" xmlns="http://www.w3.org/2000/svg" viewBox="0 0 17.44 17.44"><defs><style>.cls-1{fill:#231f20}</style></defs><g id="Layer_2" data-name="Layer 2"><g id="Layer_1-2" data-name="Layer 1"><path class="cls-1" d="M8.72 1.57c2.33 0 2.61 0 3.53.05a4.73 4.73 0 0 1 1.61.3 2.83 2.83 0 0 1 1.66 1.66 4.81 4.81 0 0 1 .3 1.62v7.05a4.73 4.73 0 0 1-.3 1.61 2.83 2.83 0 0 1-1.66 1.66 4.73 4.73 0 0 1-1.61.3H5.2a4.81 4.81 0 0 1-1.62-.3 2.83 2.83 0 0 1-1.66-1.66 4.73 4.73 0 0 1-.3-1.61c0-.92-.05-1.2-.05-3.53s0-2.6.05-3.52a4.81 4.81 0 0 1 .3-1.62 2.83 2.83 0 0 1 1.66-1.66 4.81 4.81 0 0 1 1.62-.3c.92 0 1.19-.05 3.52-.05m0-1.57C6.35 0 6.06 0 5.13.05A6.21 6.21 0 0 0 3 .46 4.37 4.37 0 0 0 .46 3a6.21 6.21 0 0 0-.41 2.13v3.59c0 2.37 0 2.67.05 3.6a6.19 6.19 0 0 0 .41 2.11A4.37 4.37 0 0 0 3 17a6.21 6.21 0 0 0 2.12.41c.93 0 1.22.05 3.59.05s2.67 0 3.6-.05a6.19 6.19 0 0 0 2.12-.41A4.37 4.37 0 0 0 17 14.43a6.19 6.19 0 0 0 .41-2.11c0-.93.05-1.23.05-3.6s0-2.66-.05-3.59A6.21 6.21 0 0 0 17 3 4.37 4.37 0 0 0 14.43.46a6.19 6.19 0 0 0-2.11-.41h-3.6"/><path class="cls-1" d="M8.72 4.24a4.48 4.48 0 1 0 4.48 4.48 4.49 4.49 0 0 0-4.48-4.48m0 7.39a2.91 2.91 0 1 1 2.91-2.91 2.91 2.91 0 0 1-2.91 2.91m5.7-7.56a1 1 0 1 1-1-1.05 1 1 0 0 1 1 1.05"/></g></g></svg>