<svg class="icon" xmlns="http://www.w3.org/2000/svg" viewBox="0 0 34.11 34.11"><g data-name="Layer 2"><path d="M17.05 0a17.06 17.06 0 1 0 17.06 17.05A17.06 17.06 0 0 0 17.05 0zm5 24a10.06 10.06 0 0 1-1.94.7 8 8 0 0 1-1.87.2 6.6 6.6 0 0 1-2-.28 4.54 4.54 0 0 1-1.5-.83 3 3 0 0 1-.86-1.13 5 5 0 0 1-.24-1.75v-5.86h-1.83v-2.37a5 5 0 0 0 1.68-.92 4.51 4.51 0 0 0 1.12-1.43 6.55 6.55 0 0 0 .58-2.12h2.36v4.23h4v2.61h-4v4.28a6.5 6.5 0 0 0 .16 1.87 1.29 1.29 0 0 0 .57.66 2.42 2.42 0 0 0 1.26.33 4.58 4.58 0 0 0 2.53-.83z" fill="#231f20" data-name="Layer 1"/></g></svg>