<svg class="icon" xmlns="http://www.w3.org/2000/svg" viewBox="0 0 34.11 34.11"><g data-name="Layer 2"><path d="M17.05 0a17.06 17.06 0 1 0 17.06 17.05A17.06 17.06 0 0 0 17.05 0zm1.85 21.92a2.81 2.81 0 0 1-2.38-1.21S16 23 15.84 23.38a10.12 10.12 0 0 1-1.76 3.18.13.13 0 0 1-.23 0 10.91 10.91 0 0 1 0-3.7c.19-.79 1.25-5.3 1.25-5.3a3.74 3.74 0 0 1-.28-1.56c0-1.44.84-2.52 1.88-2.52a1.31 1.31 0 0 1 1.3 1.43 21.38 21.38 0 0 1-.86 3.46 1.51 1.51 0 0 0 1.54 1.87c1.84 0 3.08-2.37 3.08-5.17 0-2.14-1.44-3.73-4.05-3.73A4.61 4.61 0 0 0 12.93 16a2.83 2.83 0 0 0 .64 1.91.46.46 0 0 1 .14.54c0 .18-.15.61-.19.78a.34.34 0 0 1-.49.24c-1.36-.55-2-2-2-3.71 0-2.77 2.33-6.08 7-6.08 3.71 0 6.16 2.69 6.16 5.57-.04 3.82-2.19 6.67-5.29 6.67z" fill="#231f20" data-name="Layer 1"/></g></svg>