<svg class="icon" xmlns="http://www.w3.org/2000/svg" viewBox="0 0 20.6 19.22"><g data-name="Layer 2"><path d="M20.39 14.66a2.48 2.48 0 0 0-.66-.23 5.59 5.59 0 0 1-2.68-2 6.45 6.45 0 0 1-.92-1.61.76.76 0 0 1 0-.68 1.92 1.92 0 0 1 .92-.58 3.75 3.75 0 0 0 1.25-.65 1.15 1.15 0 0 0 .18-.23v-.09a.54.54 0 0 0 0-.33 1 1 0 0 0-.43-.42.9.9 0 0 0-.75-.06 5.44 5.44 0 0 1-.66.19 1.57 1.57 0 0 1-.75 0 1.31 1.31 0 0 0 0-.17V6.39a13.24 13.24 0 0 0-.06-2.26A5.07 5.07 0 0 0 13.73 1a5.26 5.26 0 0 0-2.59-1h-.93a5.82 5.82 0 0 0-3.55 1.13 5.71 5.71 0 0 0-1.73 2.25 6.49 6.49 0 0 0-.28 2.75 13.91 13.91 0 0 1 0 1.81A2.67 2.67 0 0 1 3.8 8c-.2 0-.43-.12-.68-.19a.87.87 0 0 0-.67.15.66.66 0 0 0-.37.54.63.63 0 0 0 .22.37l.24.17a6.27 6.27 0 0 0 1.4.61 1 1 0 0 1 .62.59 1.67 1.67 0 0 1-.25 1.07 6.61 6.61 0 0 1-2.12 2.43 5.19 5.19 0 0 1-1.55.71.84.84 0 0 0-.55.32v.06a.45.45 0 0 0 .09.43.8.8 0 0 0 .24.19A5.66 5.66 0 0 0 1.8 16a4.82 4.82 0 0 1 .89.22s0 .11.1.25.12.55.22.87a.25.25 0 0 0 .19.17.58.58 0 0 0 .35 0 5.46 5.46 0 0 1 2.27-.08A8.72 8.72 0 0 1 8 18.58a3.49 3.49 0 0 0 1.7.62 11.46 11.46 0 0 0 1.44 0 2.77 2.77 0 0 0 1.14-.39c.77-.44 1.46-1 2.21-1.3a3.77 3.77 0 0 1 .89-.1 11.59 11.59 0 0 1 1.86.09.06.06 0 0 0 .06 0 .34.34 0 0 0 .22-.12.3.3 0 0 0 .06-.13c0-.06 0-.09 0 0a.08.08 0 0 0 0-.05 2.63 2.63 0 0 1 .36-.92.54.54 0 0 1 .38-.11 7.29 7.29 0 0 0 1.48-.42 1.29 1.29 0 0 0 .6-.4.43.43 0 0 0-.13-.61z" fill="#231f20" fill-rule="evenodd" data-name="Layer 1"/></g></svg>