<svg class="icon" xmlns="http://www.w3.org/2000/svg" viewBox="0 0 17.98 15.16"><g data-name="Layer 2"><path d="M18 2.07v5.51a.69.69 0 0 1-.2.42.7.7 0 0 1-.44.23L6.08 9.58a5 5 0 0 1 .14.76A2 2 0 0 1 6 11h9.9a.69.69 0 1 1 0 1.37H4.84a.66.66 0 0 1-.49-.2.7.7 0 0 1-.2-.49 1.17 1.17 0 0 1 .08-.33 3.66 3.66 0 0 1 .18-.35c0-.11.13-.26.23-.43l.17-.32-1.92-8.87H.69a.63.63 0 0 1-.48-.21A.63.63 0 0 1 0 .69.67.67 0 0 1 .21.2.66.66 0 0 1 .69 0h2.77a.6.6 0 0 1 .3.07.56.56 0 0 1 .24.17 1.22 1.22 0 0 1 .12.26 1.56 1.56 0 0 1 .08.28 3.14 3.14 0 0 1 .06.32v.28h13a.69.69 0 0 1 .48.2.67.67 0 0 1 .26.49zM6.5 12.81a1.32 1.32 0 0 1 .41 1 1.3 1.3 0 0 1-.41 1 1.32 1.32 0 0 1-1 .41 1.4 1.4 0 0 1-1.38-1.38 1.36 1.36 0 0 1 .41-1 1.34 1.34 0 0 1 1-.41 1.32 1.32 0 0 1 .97.38zm9.68 0a1.32 1.32 0 0 1 .41 1 1.3 1.3 0 0 1-.41 1 1.35 1.35 0 0 1-1.94 0 1.3 1.3 0 0 1-.41-1 1.32 1.32 0 0 1 .41-1 1.35 1.35 0 0 1 1.94 0z" fill="#010101" data-name="Layer 1"/></g></svg>