<svg class="icon" xmlns="http://www.w3.org/2000/svg" viewBox="0 0 16.56 13.46"><g data-name="Layer 2"><path d="M0 11.93a9.65 9.65 0 0 0 5.21 1.53 9.61 9.61 0 0 0 9.65-10.11 6.94 6.94 0 0 0 1.7-1.76 6.8 6.8 0 0 1-1.95.54A3.4 3.4 0 0 0 16.1.25a6.71 6.71 0 0 1-2.16.82 3.4 3.4 0 0 0-5.79 3.1 9.63 9.63 0 0 1-7-3.55A3.41 3.41 0 0 0 2.2 5.16a3.31 3.31 0 0 1-1.53-.43 3.4 3.4 0 0 0 2.72 3.38 3.28 3.28 0 0 1-1.53.05A3.39 3.39 0 0 0 5 10.52a6.85 6.85 0 0 1-5 1.41z" fill="#231f20" data-name="Layer 1"/></g></svg>