<svg class="icon" id="Layer_1" xmlns="http://www.w3.org/2000/svg" viewBox="0 0 34.1 34.1"><style>.st0{fill:#fff}</style><g id="Layer_2_1_"><g id="Layer_1-2"><path class="st0" d="M22.4 13.4c-.2-.6-.7-1.1-1.3-1.3-.4-.2-.8-.2-1.3-.2h-5.6c-.4 0-.9.1-1.3.2-.6.2-1.1.7-1.3 1.3-.2.4-.2.8-.2 1.3v5.6c0 .4.1.9.2 1.3.1.3.3.6.5.8.2.2.5.4.8.5.4.2.8.3 1.3.3h5.5c.4 0 .9-.1 1.3-.2.3-.1.6-.3.8-.5.2-.2.4-.5.5-.8.2-.4.2-.8.2-1.3v-5.6c.1-.6 0-1-.1-1.4zM17 20.9c-1.9 0-3.5-1.6-3.5-3.5s1.6-3.5 3.5-3.5 3.5 1.6 3.5 3.5-1.5 3.5-3.5 3.5zm3.7-6.3c-.5 0-.8-.4-.8-.8 0-.5.4-.8.8-.8.5 0 .8.4.8.8s-.4.8-.8.8z"/><path class="st0" d="M17 15.1c-1.3 0-2.3 1-2.3 2.3 0 1.3 1 2.3 2.3 2.3 1.3 0 2.3-1 2.3-2.3 0-1.3-1-2.3-2.3-2.3.1 0 .1 0 0 0z"/><path class="st0" d="M17 0C7.6 0 0 7.6 0 17s7.6 17 17 17 17-7.6 17-17S26.4 0 17 0zm6.8 20.2c0 .6-.1 1.1-.3 1.6-.4.9-1.1 1.6-2 2-.5.2-1.1.3-1.6.3h-5.6c-.6 0-1.1-.1-1.6-.3-.9-.4-1.6-1.1-2-2-.2-.5-.3-1.1-.3-1.6v-5.6c0-.6.1-1.1.3-1.6.2-.5.4-.9.8-1.2.3-.3.8-.6 1.2-.8.5-.2 1.1-.3 1.6-.3h5.6c.6 0 1.1.1 1.6.3.5.2.9.4 1.2.8.3.3.6.8.8 1.2.2.5.3 1.1.3 1.6v2.8c0 1.8.1 2.1 0 2.8z"/></g></g></svg>