<svg class="icon" xmlns="http://www.w3.org/2000/svg" viewBox="0 0 34.1 34.1"><path d="M17 0C7.6 0 0 7.6 0 17.1c0 9.4 7.6 17.1 17.1 17.1s17.1-7.6 17.1-17.1C34.1 7.6 26.5 0 17 0zm8.3 20.9c-.1.1-.3.3-.5.3-.4.2-.8.3-1.2.3-.1 0-.2 0-.3.1-.1.2-.2.5-.3.7 0 0 0 .1-.1.1 0 .1-.1.1-.2.1m.2 0c-.5-.1-1-.1-1.5-.1-.2 0-.5 0-.7.1-.6.3-1.2.6-1.7 1-.3.2-.6.4-1 .5h-1.1c-.5 0-.9-.2-1.3-.5-.5-.4-1.1-.7-1.7-.9-.6-.1-1.2-.1-1.8.1h-.3c-.1 0-.1-.1-.1-.1-.1-.2-.1-.5-.2-.7 0-.1-.1-.1-.1-.2-.2-.1-.5-.1-.7-.2-.4-.1-.8-.2-1.1-.4-.1 0-.1-.1-.2-.1-.1-.1-.1-.2-.1-.3.1-.1.3-.2.4-.3.4-.1.9-.3 1.2-.6.7-.5 1.3-1.1 1.7-1.9.2-.3.2-.5.2-.8-.1-.2-.3-.4-.5-.5-.4-.1-.7-.3-1.1-.5L11 16c-.1-.1-.2-.2-.2-.3 0-.2.1-.3.3-.4.1-.1.3-.2.5-.2.2.1.4.1.5.1h.7v-1.4c-.1-.7 0-1.5.2-2.1.3-.7.8-1.3 1.4-1.8.9-.6 1.9-.9 2.9-.9h.7c.7.1 1.4.3 2 .7.8.6 1.4 1.5 1.7 2.5v3h.6c.2 0 .4-.1.5-.1.2-.1.4-.1.6.1.1.1.3.2.3.3v.4c0 .1-.1.1-.1.2-.3.2-.6.4-1 .5-.3.1-.5.2-.7.5-.1.2-.1.4 0 .5.2.5.4.9.7 1.2.5.7 1.3 1.2 2.1 1.5.2 0 .3.1.5.2.2 0 .3.2.2.4 0 0 0 .1-.1.1l-2.4 1.5z" fill="#fff"/></svg>