<?xml version="1.0" standalone="no"?>
<!DOCTYPE svg PUBLIC "-//W3C//DTD SVG 20010904//EN"
 "http://www.w3.org/TR/2001/REC-SVG-20010904/DTD/svg10.dtd">
<svg version="1.0" xmlns="http://www.w3.org/2000/svg"
 width="599.000000pt" height="232.000000pt" viewBox="0 0 599.000000 232.000000"
 preserveAspectRatio="xMidYMid meet">
<metadata>
Created by potrace 1.15, written by Peter Selinger 2001-2017
</metadata>
<g transform="translate(0.000000,232.000000) scale(0.100000,-0.100000)"
fill="#000000" stroke="none">
<path d="M680 2130 c-153 -19 -290 -87 -400 -199 -143 -145 -211 -307 -227
-538 -25 -380 170 -708 482 -810 67 -22 99 -26 200 -27 69 -1 137 4 160 11 22
7 84 42 138 77 99 66 141 82 177 71 28 -9 51 -57 57 -121 14 -131 23 -30 25
274 2 253 6 327 16 328 6 1 35 2 62 3 28 0 50 6 50 11 0 6 -97 10 -270 10
-173 0 -270 -4 -270 -10 0 -6 29 -10 68 -10 37 0 73 -4 80 -9 11 -6 13 -51 10
-212 -3 -201 -3 -205 -31 -257 -50 -94 -160 -149 -282 -140 -144 12 -253 121
-319 319 -81 243 -81 655 1 884 83 233 247 347 449 315 169 -27 273 -141 330
-360 15 -58 27 -86 38 -88 14 -3 16 22 16 243 0 229 -1 246 -17 243 -10 -2
-19 -13 -21 -26 -5 -32 -44 -55 -80 -47 -16 3 -71 19 -122 36 -103 32 -215 43
-320 29z"/>
<path d="M2180 1752 c-91 -45 -94 -200 -4 -259 32 -20 117 -23 152 -4 28 15
34 1 23 -51 -14 -63 -33 -104 -93 -201 -58 -94 -189 -277 -199 -277 -4 0 -14
21 -24 48 -20 55 -74 176 -140 317 -120 256 -145 312 -145 323 0 8 21 12 60
12 57 0 60 1 60 25 l0 25 -270 0 -270 0 0 -25 c0 -24 3 -25 54 -25 31 0 58 -5
64 -12 5 -7 105 -220 221 -473 l211 -459 -40 -84 c-54 -110 -74 -190 -68 -273
9 -122 58 -169 177 -169 67 0 73 2 108 34 35 32 37 38 41 102 2 56 -1 75 -18
102 -33 54 -125 78 -194 52 -24 -9 -26 -7 -26 15 0 68 73 193 267 453 155 209
193 270 241 382 109 257 64 440 -108 440 -25 0 -61 -8 -80 -18z"/>
<path d="M5494 1740 c-39 -25 -59 -71 -57 -128 4 -100 106 -162 194 -117 42
22 53 11 45 -48 -10 -92 -90 -236 -235 -430 l-66 -88 -32 68 c-18 37 -95 203
-172 368 l-138 300 68 3 c38 2 69 7 69 12 0 6 -99 10 -255 10 -163 0 -255 -4
-255 -10 0 -6 26 -10 58 -10 l58 0 171 -372 c94 -205 192 -421 218 -480 l48
-108 -36 -77 c-49 -106 -67 -175 -67 -252 0 -113 51 -173 149 -174 83 -1 136
51 135 133 -1 53 -26 103 -61 119 -31 14 -118 14 -145 0 -31 -17 -38 5 -22 74
21 87 81 191 213 365 203 267 228 304 275 397 55 111 76 187 76 280 0 83 -20
129 -69 162 -45 30 -123 31 -167 3z"/>
<path d="M3053 1701 c-61 -21 -113 -58 -150 -109 -15 -20 -31 -41 -36 -47 -5
-6 -7 22 -6 65 l2 75 -181 3 c-119 2 -182 -1 -182 -8 0 -6 27 -10 65 -10 l65
0 0 -695 0 -695 -65 0 c-37 0 -65 -4 -65 -10 0 -6 88 -10 245 -10 157 0 245 4
245 10 0 6 -28 10 -65 10 l-65 0 0 226 0 227 53 -55 c86 -88 187 -120 314 -98
103 17 167 51 242 128 120 122 166 250 165 462 -1 118 -4 145 -28 217 -43 133
-127 237 -236 293 -80 42 -229 52 -317 21z m130 -57 c56 -19 119 -84 152 -157
37 -82 55 -192 55 -336 0 -207 -37 -350 -112 -435 -57 -66 -107 -90 -189 -90
-93 0 -151 36 -194 119 l-30 59 0 325 c0 293 2 331 19 380 43 125 166 180 299
135z"/>
<path d="M3990 1695 c-73 -20 -158 -79 -197 -138 -57 -85 -67 -220 -24 -306
41 -79 119 -130 303 -199 144 -54 199 -84 241 -131 122 -135 34 -319 -167
-345 -112 -14 -272 38 -335 110 -35 39 -42 72 -13 58 9 -5 41 -9 70 -9 48 0
57 3 83 33 22 24 29 42 29 72 0 81 -43 124 -128 125 -49 0 -56 -3 -88 -37 -31
-34 -34 -44 -34 -96 0 -158 161 -272 386 -272 203 0 338 63 409 191 27 49 30
63 30 144 0 105 -18 148 -84 208 -51 46 -92 66 -253 127 -157 60 -210 91 -248
149 -25 38 -30 54 -30 108 0 138 74 203 234 203 72 0 90 -4 144 -31 34 -17 75
-47 92 -67 40 -48 87 -147 96 -200 14 -90 24 -34 24 139 0 117 -3 178 -10 174
-5 -3 -10 -13 -10 -20 0 -22 -38 -37 -73 -30 -18 4 -57 16 -87 27 -73 28 -278
35 -360 13z"/>
<path d="M5648 840 c-45 -27 -69 -196 -40 -281 17 -50 58 -87 79 -73 56 35 85
146 64 247 -20 97 -56 134 -103 107z m54 -22 c9 -16 13 -65 13 -148 0 -127
-10 -170 -40 -170 -27 0 -35 39 -35 170 0 72 5 140 10 151 14 25 36 24 52 -3z"/>
<path d="M5800 760 c0 -92 8 -110 29 -64 6 14 17 24 24 21 17 -5 29 -83 22
-142 -7 -61 -18 -80 -40 -72 -13 6 -15 15 -10 51 8 50 -9 71 -32 40 -26 -35 6
-114 47 -114 53 0 94 94 78 179 -9 54 -40 85 -75 76 -23 -5 -24 -3 -21 32 3
38 3 38 51 41 39 3 47 6 47 23 0 17 -7 19 -60 19 l-60 0 0 -90z"/>
</g>
</svg>
