<svg height="32" width="32" xmlns="http://www.w3.org/2000/svg"><path d="M27.719 20.296l3.607-10.718c.181-.519.044-.792-.103-.998-.374-.527-1.142-.512-1.292-.512l-20.385.006-.544-2.733C8.855 4.732 8.421 4 7.546 4H1.817C1.224 4 1 4.59 1 5.146v1.49c0 .536.222.364.838.364h4.837l3.702 15.873c-.588.623-.908 1.609-.908 2.457 0 1.864 1.484 3.465 3.379 3.465 1.791 0 3.132-1.795 3.35-2.795h7.21c.218 1 1.305 2.873 3.349 2.873 1.862 0 3.378-1.535 3.378-3.396 0-1.852-1.125-3.609-3.359-3.609-.928 0-2.031.133-2.543 1.133h-8.859c-.643-1-1.521-1.311-2.409-1.345L12.843 21h13.479c1.016 0 1.216-.214 1.397-.704zm-16.182 5.218c0-.709.577-1.286 1.286-1.286a1.286 1.286 0 0 1 0 2.571c-.71 0-1.286-.576-1.286-1.285zm15.246 1.269a1.271 1.271 0 1 1 1.27-1.27c0 .7-.569 1.27-1.27 1.27z" fill="#515151"/></svg>