<svg version="1" xmlns="http://www.w3.org/2000/svg" width="798.667" height="309.333" viewBox="0 0 599 232"><path d="M68 19c-15.3 1.9-29 8.7-40 19.9C13.7 53.4 6.9 69.6 5.3 92.7c-2.5 38 17 70.8 48.2 81 6.7 2.2 9.9 2.6 20 2.7 6.9.1 13.7-.4 16-1.1 2.2-.7 8.4-4.2 13.8-7.7 9.9-6.6 14.1-8.2 17.7-7.1 2.8.9 5.1 5.7 5.7 12.1 1.4 13.1 2.3 3 2.5-27.4.2-25.3.6-32.7 1.6-32.8.6-.1 3.5-.2 6.2-.3 2.8 0 5-.6 5-1.1 0-.6-9.7-1-27-1s-27 .4-27 1 2.9 1 6.8 1c3.7 0 7.3.4 8 .9 1.1.6 1.3 5.1 1 21.2-.3 20.1-.3 20.5-3.1 25.7-5 9.4-16 14.9-28.2 14-14.4-1.2-25.3-12.1-31.9-31.9-8.1-24.3-8.1-65.5.1-88.4C49 30.2 65.4 18.8 85.6 22c16.9 2.7 27.3 14.1 33 36 1.5 5.8 2.7 8.6 3.8 8.8 1.4.3 1.6-2.2 1.6-24.3 0-22.9-.1-24.6-1.7-24.3-1 .2-1.9 1.3-2.1 2.6-.5 3.2-4.4 5.5-8 4.7-1.6-.3-7.1-1.9-12.2-3.6-10.3-3.2-21.5-4.3-32-2.9z"/><path d="M218 56.8c-9.1 4.5-9.4 20-.4 25.9 3.2 2 11.7 2.3 15.2.4 2.8-1.5 3.4-.1 2.3 5.1-1.4 6.3-3.3 10.4-9.3 20.1-5.8 9.4-18.9 27.7-19.9 27.7-.4 0-1.4-2.1-2.4-4.8-2-5.5-7.4-17.6-14-31.7-12-25.6-14.5-31.2-14.5-32.3 0-.8 2.1-1.2 6-1.2 5.7 0 6-.1 6-2.5V61h-54v2.5c0 2.4.3 2.5 5.4 2.5 3.1 0 5.8.5 6.4 1.2.5.7 10.5 22 22.1 47.3l21.1 45.9-4 8.4c-5.4 11-7.4 19-6.8 27.3.9 12.2 5.8 16.9 17.7 16.9 6.7 0 7.3-.2 10.8-3.4 3.5-3.2 3.7-3.8 4.1-10.2.2-5.6-.1-7.5-1.8-10.2-3.3-5.4-12.5-7.8-19.4-5.2-2.4.9-2.6.7-2.6-1.5 0-6.8 7.3-19.3 26.7-45.3 15.5-20.9 19.3-27 24.1-38.2 10.9-25.7 6.4-44-10.8-44-2.5 0-6.1.8-8 1.8zM549.4 58c-3.9 2.5-5.9 7.1-5.7 12.8.4 10 10.6 16.2 19.4 11.7 4.2-2.2 5.3-1.1 4.5 4.8-1 9.2-9 23.6-23.5 43l-6.6 8.8-3.2-6.8c-1.8-3.7-9.5-20.3-17.2-36.8l-13.8-30 6.8-.3c3.8-.2 6.9-.7 6.9-1.2 0-.6-9.9-1-25.5-1-16.3 0-25.5.4-25.5 1s2.6 1 5.8 1h5.8l17.1 37.2c9.4 20.5 19.2 42.1 21.8 48l4.8 10.8-3.6 7.7c-4.9 10.6-6.7 17.5-6.7 25.2 0 11.3 5.1 17.3 14.9 17.4 8.3.1 13.6-5.1 13.5-13.3-.1-5.3-2.6-10.3-6.1-11.9-3.1-1.4-11.8-1.4-14.5 0-3.1 1.7-3.8-.5-2.2-7.4 2.1-8.7 8.1-19.1 21.3-36.5 20.3-26.7 22.8-30.4 27.5-39.7 5.5-11.1 7.6-18.7 7.6-28 0-8.3-2-12.9-6.9-16.2-4.5-3-12.3-3.1-16.7-.3zm-244.1 3.9c-6.1 2.1-11.3 5.8-15 10.9-1.5 2-3.1 4.1-3.6 4.7-.5.6-.7-2.2-.6-6.5l.2-7.5-18.1-.3c-11.9-.2-18.2.1-18.2.8 0 .6 2.7 1 6.5 1h6.5v139h-6.5c-3.7 0-6.5.4-6.5 1s8.8 1 24.5 1 24.5-.4 24.5-1-2.8-1-6.5-1H286v-45.3l5.3 5.5c8.6 8.8 18.7 12 31.4 9.8 10.3-1.7 16.7-5.1 24.2-12.8 12-12.2 16.6-25 16.5-46.2-.1-11.8-.4-14.5-2.8-21.7C356.3 80 347.9 69.6 337 64c-8-4.2-22.9-5.2-31.7-2.1zm13 5.7c5.6 1.9 11.9 8.4 15.2 15.7 3.7 8.2 5.5 19.2 5.5 33.6 0 20.7-3.7 35-11.2 43.5-5.7 6.6-10.7 9-18.9 9-9.3 0-15.1-3.6-19.4-11.9l-3-5.9v-32.5c0-29.3.2-33.1 1.9-38 4.3-12.5 16.6-18 29.9-13.5zm80.7-5.1c-7.3 2-15.8 7.9-19.7 13.8-5.7 8.5-6.7 22-2.4 30.6 4.1 7.9 11.9 13 30.3 19.9 14.4 5.4 19.9 8.4 24.1 13.1 12.2 13.5 3.4 31.9-16.7 34.5-11.2 1.4-27.2-3.8-33.5-11-3.5-3.9-4.2-7.2-1.3-5.8.9.5 4.1.9 7 .9 4.8 0 5.7-.3 8.3-3.3 2.2-2.4 2.9-4.2 2.9-7.2 0-8.1-4.3-12.4-12.8-12.5-4.9 0-5.6.3-8.8 3.7-3.1 3.4-3.4 4.4-3.4 9.6 0 15.8 16.1 27.2 38.6 27.2 20.3 0 33.8-6.3 40.9-19.1 2.7-4.9 3-6.3 3-14.4 0-10.5-1.8-14.8-8.4-20.8-5.1-4.6-9.2-6.6-25.3-12.7-15.7-6-21-9.1-24.8-14.9-2.5-3.8-3-5.4-3-10.8 0-13.8 7.4-20.3 23.4-20.3 7.2 0 9 .4 14.4 3.1 3.4 1.7 7.5 4.7 9.2 6.7 4 4.8 8.7 14.7 9.6 20 1.4 9 2.4 3.4 2.4-13.9 0-11.7-.3-17.8-1-17.4-.5.3-1 1.3-1 2 0 2.2-3.8 3.7-7.3 3-1.8-.4-5.7-1.6-8.7-2.7-7.3-2.8-27.8-3.5-36-1.3zM564.8 148c-4.5 2.7-6.9 19.6-4 28.1 1.7 5 5.8 8.7 7.9 7.3 5.6-3.5 8.5-14.6 6.4-24.7-2-9.7-5.6-13.4-10.3-10.7zm5.4 2.2c.9 1.6 1.3 6.5 1.3 14.8 0 12.7-1 17-4 17-2.7 0-3.5-3.9-3.5-17 0-7.2.5-14 1-15.1 1.4-2.5 3.6-2.4 5.2.3zm9.8 5.8c0 9.2.8 11 2.9 6.4.6-1.4 1.7-2.4 2.4-2.1 1.7.5 2.9 8.3 2.2 14.2-.7 6.1-1.8 8-4 7.2-1.3-.6-1.5-1.5-1-5.1.8-5-.9-7.1-3.2-4-2.6 3.5.6 11.4 4.7 11.4 5.3 0 9.4-9.4 7.8-17.9-.9-5.4-4-8.5-7.5-7.6-2.3.5-2.4.3-2.1-3.2.3-3.8.3-3.8 5.1-4.1 3.9-.3 4.7-.6 4.7-2.3 0-1.7-.7-1.9-6-1.9h-6v9z"/></svg>