<svg height="60" width="60" xmlns="http://www.w3.org/2000/svg"><g fill="none" fill-rule="evenodd"><path d="M30 60c16.569 0 30-13.431 30-30C60 13.431 46.569 0 30 0 13.431 0 0 13.431 0 30c0 16.569 13.431 30 30 30z" fill="#000"/><path d="M32.76 39.084c6.605 0 11.086-6.147 11.086-14.376 0-6.22-5.163-12.016-13.007-12.016-9.763 0-14.685 7.146-14.685 13.104 0 3.608 1.337 6.817 4.208 8.014.47.196.891.006 1.028-.525.094-.369.32-1.298.419-1.684.138-.526.085-.71-.295-1.17-.827-.997-1.355-2.286-1.355-4.113 0-5.3 3.883-10.046 10.116-10.046 5.516 0 8.55 3.441 8.55 8.039 0 6.047-2.623 11.152-6.516 11.152-2.15 0-3.758-1.815-3.243-4.04.617-2.657 1.815-5.526 1.815-7.444 0-1.716-.903-3.15-2.772-3.15-2.198 0-3.963 2.322-3.963 5.43 0 1.98.657 3.32.657 3.32l-2.644 11.43c-.358 1.55-.412 3.254-.362 4.695.15 1.292 1.402 2.344 2.488.927.764-1.246 1.584-2.819 2.009-4.396.253-.932 1.446-5.765 1.446-5.765.715 1.39 2.801 2.614 5.02 2.614z" fill="#FFF"/></g></svg>