<svg height="56.693" width="56.693" xmlns="http://www.w3.org/2000/svg"><path d="M29.207 4.374c-13.6 0-24.625 11.023-24.625 24.623s11.025 24.625 24.625 24.625c13.598 0 24.624-11.026 24.624-24.625S42.805 4.374 29.207 4.374zm15.31 32.689c-.183.428-1.008 1.035-3.895 1.481-.236.036-.327.344-.468.988a9.953 9.953 0 0 1-.175.707c-.061.21-.192.309-.412.309h-.036c-.153 0-.37-.028-.646-.082a8.619 8.619 0 0 0-1.734-.183c-.407 0-.829.035-1.252.105-.866.145-1.601.664-2.38 1.214-1.131.8-2.3 1.626-4.12 1.626-.078 0-.156-.003-.234-.006-.05.004-.101.006-.153.006-1.82 0-2.988-.826-4.117-1.624-.78-.551-1.516-1.071-2.383-1.216a7.694 7.694 0 0 0-1.25-.105c-.734 0-1.312.113-1.734.195-.257.05-.478.094-.647.094-.175 0-.366-.038-.449-.321a10.105 10.105 0 0 1-.174-.712c-.129-.59-.22-.954-.468-.992-2.886-.446-3.712-1.054-3.896-1.485a.556.556 0 0 1-.044-.185.325.325 0 0 1 .272-.338c4.436-.73 6.425-5.265 6.508-5.458a.548.548 0 0 1 .007-.015c.271-.55.325-1.028.159-1.42-.305-.717-1.298-1.032-1.955-1.24a7.042 7.042 0 0 1-.434-.147c-1.311-.519-1.42-1.051-1.369-1.322.088-.463.706-.785 1.205-.785.137 0 .258.025.36.072.59.276 1.121.416 1.58.416.634 0 .91-.266.945-.3-.017-.301-.037-.615-.057-.938-.132-2.098-.296-4.704.368-6.191 1.988-4.46 6.206-4.806 7.45-4.806l.547-.005h.074c1.247 0 5.474.346 7.464 4.808.664 1.488.5 4.097.367 6.192l-.005.092c-.019.291-.036.575-.051.847.031.032.286.277.86.299h.001c.437-.017.939-.156 1.49-.414.161-.075.34-.091.463-.091.186 0 .375.036.532.101l.01.004c.445.158.737.47.743.797.006.307-.229.77-1.38 1.224a6.965 6.965 0 0 1-.433.146c-.658.209-1.65.524-1.954 1.241-.167.392-.113.869.158 1.42l.007.016c.083.192 2.07 4.725 6.509 5.456.164.027.28.173.272.34a.553.553 0 0 1-.046.185z"/></svg>